<?xml version="1.0" encoding="utf-8"?>
<!-- Generator: Adobe Illustrator 17.1.0, SVG Export Plug-In . SVG Version: 6.00 Build 0)  -->
<!DOCTYPE svg PUBLIC "-//W3C//DTD SVG 1.1//EN" "http://www.w3.org/Graphics/SVG/1.1/DTD/svg11.dtd">
<svg version="1.1" id="Layer_1" xmlns="http://www.w3.org/2000/svg" xmlns:xlink="http://www.w3.org/1999/xlink" x="0px" y="0px"
	 viewBox="0 0 960 560" enable-background="new 0 0 960 560" xml:space="preserve">
<g>
	<g>
		<g>
			<path fill="#010101" d="M484.6,457.8c-59.9,0-119.9-0.2-179.8,0.2c-10,0.1-14.2-0.8-14.2-13c0.6-107.3,0.6-214.6,0-321.9
				c-0.1-10.8,2.5-12.4,12.7-12.4c120.6,0.4,241.2,0.5,361.8-0.1c12.7-0.1,12.9,4.8,12.8,14.4c-0.2,106.5-0.4,213.1,0.2,319.6
				c0.1,11.4-2.9,13.6-13.7,13.5C604.5,457.5,544.6,457.8,484.6,457.8z"/>
			<path fill="#242424" d="M367.1,448.3c-62.6,2.9-63.4,2.9-62.4-58.7c0.6-33.6-5.5-67.6,4.2-100.8c1.6-1.4,3.4-1.8,5.5-1.2
				c5.4,3.2,8,9,12.5,13.1c3.6,7.2,8.8,13.9,6.3,22.7c-1.3,2.2-3.2,3.5-5.7,3.7c0.1,0-0.5,1.8-0.3,1.8c2.5,1,3.9-1.6,6.1-1.7
				c1.8,0.4,3.4,1.2,4.8,2.4c5.7,5.9,2.8,14.8,7.4,21c4,7.4,13.6,6.5,18.6,12.5c5,12.2,7.4,25.2,13,37.2c0.3,2.1,0.5,4.2,0.6,6.3
				c0.1,7.6,0.1,15.2,0,22.8c-0.1,3.3-0.3,6.6-1.3,9.8C374.6,443.5,370.3,445.4,367.1,448.3z"/>
			<path fill="#C0C0C0" d="M642.4,448.2c-25.2,0-50.4,0-75.6,0c-3.2-3.5-10.2,0-11.6-6.5c2.5-13.1,2.1-27.2,13.5-37
				c2.5-7.8,3.3-15.9,4.7-23.9c0-6.4,0.2-12.8,6.5-16.8c8.1,3.4,15.6-4.2,23.7-1.6c8.7,7.7,15.9,7.6,24-2c6.3-7.5,9.8-19,22.4-19.5
				c9,4.1,7.5,12.4,8,19.9c1.4,16.2,6.7,33.1-9,46c6.1-4.9,12.1-8.5,19.4-2.3c0,5.9,0,11.9,0,17.8
				C661.2,432.5,655,443.6,642.4,448.2z"/>
			<path fill="#C6C6C6" d="M305.2,177.8c0-11.8-0.1-23.7-0.1-35.5c2.9-2.4,6.3-3.3,9.8-4.4c4.5-1.7,6.9-6.3,11.2-8.3
				c2.7-1.3,5.5-1.9,8.4-2c5.2,0.3,10.8,2.3,14.8-3.4c1.4-1.2,2.7-2.4,4.1-3.6c5.3-2.8,8.6,2.6,13,3.3c0.9,0.4,1.8,0.9,2.7,1.3
				c12.6,15.8,28.8,26.5,47.3,34.2c2.9,1.4,5.3,3.4,7.3,5.9c8.8,13-2.1,31.5,12,43.1c0.1,2.1-0.5,4.1-1.5,6
				c-23,13.3-29.4-6.8-39.3-19.5c-3.5-4.6-6.8-0.7-10.2,0.4c-1.9,0.6-3.9,0.9-5.9,0.9c-11.7-3-24.7,6.8-35.6-3.7
				c-3.7-3.7-6.7-8.6-13.1-7.9C321.7,182.5,308.8,197.3,305.2,177.8z"/>
			<path fill="#BABABA" d="M562.3,120.7c17.8-1.4,35.6-1.9,53.1,3c4.6,1.7,6.9,5.2,7.8,9.8c0.4,4.6-1.1,8.6-3.8,12.2
				c-9.8,7.3-16.3,14.8-1.4,23.7c2.2,5.8,0.5,10.7-3.5,15c-6,4.7-14,5.5-20,10.2c-5.4,1.7-10.7,1.2-15.7-1.5
				c-2.9-1.2-5.5-2.9-7.7-5.3c-2.6-3.1-6-5.5-8.5-8.8c-4.7-6.9-12-13.1-6.3-23c0.9-1.5,0-2.7-1.2-2.2c-1.9,0.7-3.3,2.6-5.3,3.5
				c-2.2,0.4-4.3,0.2-6.4-0.8c-1.7-1.4-3.1-3.2-4.1-5.2c-0.7-2.2-1-4.4-1-6.6C536.8,127.3,554.1,128.5,562.3,120.7z"/>
			<path fill="#C1C1C1" d="M620.5,134c-1.7-3.4-3.5-6.8-5.2-10.2c15.1-8,31.3-2,46.9-3.6c4.4-0.5,6.6,2.3,6.6,6.7
				c-0.2,20.6-0.4,41.2-1.1,61.7c0,1.3-4.7,2.4-7.2,3.6c-1.8,1-3.6,1.1-5.5,0.5c-5.3-4-10.4-8.2-16.1-11.7
				c-4.7-6.3-12.6-9.1-17.4-15.3C615,155.3,621.6,144.5,620.5,134z"/>
			<path fill="#C7C7C7" d="M312.1,289.4c-1.1-0.2-2.2-0.5-3.2-0.7c-6.6-14.3-4.5-29.4-3.8-44.4c2.7-5.9,5.6-11.6,13-12.8
				c3.1-0.4,6.1,0.2,8.7,1.9c2.6,1.2,3,5.6,7,4.6c2.4-2.5,4.7-4.8,7.9-6.1c7.2-1.7,12.7,0.5,16.4,6.9c1.9,4.9,2.1,10.4,4.6,15.2
				c1.6,3.8,2.9,7.6,2.2,11.8c-0.4,1.9-1.2,3.7-2.2,5.3c-2.8,3.6-5.1,7.4-5,12.3c-0.2,1.9-0.8,3.7-1.7,5.5
				c-2.8,4.5-6.6,7.2-12.2,6.3c-4.8-1.6-6.8-6.2-10.5-9.1c-1.4-1.1-2.7-2.4-3.9-3.5c-1.3-0.7-2.7-1.1-4.1-1c-2.5,2-3.8,5-6.1,7.2
				C317.1,290.5,314.8,291.5,312.1,289.4z"/>
			<path fill="#C0C0C0" d="M420,168.9c-1.5-1.5-3-3-4.4-4.4c-19-9.5-33.5-24.7-48.5-39.3l-0.7-1.2c15.9-8.8,32.8-2.4,49.2-3.3
				c10,6,9.1,19.4,17.8,26.2c1.4,1.6,2.4,3.4,3.2,5.4c1.3,5.8-0.4,10.6-4.4,14.8C428.4,170,424.4,170.9,420,168.9z"/>
			<path fill="#BCBCBC" d="M668.5,249.2c-0.1,10.2-0.2,20.5-0.3,30.7c-6.4,3-5.6,9.8-8,15c-1.8,2.7-4.2,4.5-7.3,5.4
				c-3.1,0.5-6-0.2-8.8-1.4c-3.5-1.6-6.1-4.4-8.4-7.3c-4-3.8-8.5-0.8-12.8-0.9c-3.2,0.2-6.4,0.1-9.6-0.6c-9.8-4-10.4-10.8-5.7-19.1
				c6.3-9.7,21-1.5,26.6-12.7c3.9-3.5,8.5-5.4,13.7-5.9c5.8,0,10.4-3.5,15.6-5.4C665.6,246.9,667.2,247.6,668.5,249.2z"/>
			<path fill="#C4C4C4" d="M317.7,235.5c-4.2,2.9-8.4,5.9-12.6,8.8c0-22.2,0.1-44.4,0.1-66.5c8.6,10.1,17.2-4.7,25.8-0.1
				c1.5,1.4,2.3,3.1,2.3,5.2c-2.6,7.4-5.8,14.8-1.9,22.8C335.8,219.7,331.2,229.7,317.7,235.5z"/>
			<path fill="#292929" d="M412.3,448c-9.3,0.2-18.7,0.3-28,0.5c-4.2-4-3.3-8.3-1.2-12.9c0.8-1.6,1.8-3.1,2.8-4.4
				c0.8-1.1,1.3-2.5,1.1-3.9c-1.6-1.7-3.5-2.9-5.3-4.4c-1.4-1.4-2.4-2.9-3.2-4.7c-2.2-9.3-5-18.5-2.3-28.2
				c4.4-7.7,11.2-11,19.9-10.7c11.9,3.7,11.8,14,13.1,23.6c2.6,7.4,2.9,15.4,6.2,22.7C416,433.3,418.7,441.3,412.3,448z"/>
			<path fill="#BFBFBF" d="M668.2,404.5c-14.3-1-17.9,19.7-36.3,16.2c11.7-17.7,27-33.6,19.2-56.2c2.2-2.5,4.9-2.9,7.8-2.1
				c5.1,7.6,4.5-8.1,9.2-2.4C668.2,374.9,668.2,389.7,668.2,404.5z"/>
			<path fill="#B6B6B6" d="M562.3,120.7c2.7,14.6-21.4,10.8-17.8,26c-3.2,2.2-7,3.2-10.6,4.8c-2.7,1.2-5.4,1.9-8.4,1.7
				c-5.5-1.4-8.7-6.8-14.3-8.1c-7.8-4.5-9.6-11-6.6-19.2c1.2-1.9,2.7-3.6,4.3-5.1C526.7,120.7,544.5,120.7,562.3,120.7z"/>
			<path fill="#B9B9B9" d="M508.9,120.7c0,1.2,0,2.5,0,3.7c-3.9,8-6.6,15.5,0.4,23.8c4.3,5.1,5,11.9,1.4,18.4
				c-2.9,3.5-6.5,6-10.8,7.4c-7.1,1.4-13.3-0.1-18.4-5.5c-4.7-5.9-6-13-7.1-20.2c-0.3-4,1.2-7.8,1.8-11.7c1.5-5.5,0.8-11.8,6.2-15.8
				C491.1,120.7,500,120.7,508.9,120.7z"/>
			<path fill="#C2C2C2" d="M642.4,448.2c4.5-12.7,10.1-24.4,25.9-25.9C669.6,449.5,669.6,449.5,642.4,448.2z"/>
			<path fill="#535353" d="M518,448.7c-10.5,0-21.1,0-31.6,0c-2.3-2.8-3.6-5.9-3.4-9.6c0.7-3.7,2.6-6.6,5.5-8.9
				c6.3-4.6,13.1-6.2,20.7-4c7.3,2.9,12.4,7.5,12,16.2C520.7,444.8,519.6,446.9,518,448.7z"/>
			<path fill="#BBBBBB" d="M428.9,151.1c-15.8-5.1-8.3-20.5-13.4-30.4c5.9,0,11.8,0,17.7,0c2.6,4.3,6.9,7.7,7.3,13.3
				C440.5,142.3,433.4,145.8,428.9,151.1z"/>
			<path fill="#AEAEAE" d="M412.3,448c1.3-7.2-5.5-13.9-1.5-21.3c-2.2-8.4-7.6-18.1,7.9-19.2c9.6,5.5,7.1,15,7.8,23.5
				c-0.2,5.8,1.6,12-2.6,17.2C420.1,448.2,416.2,448.1,412.3,448z"/>
			<path fill="#BDBDBD" d="M668.2,324.4c0,3,0,6,0,9.1c-4.9,5.3,4.2,16.5-7.9,18.7c-5-9.7-16.7-14.5-18.8-26.3
				c-0.3-3.4,0.4-6.6,2.1-9.5c1.3-1.7,3.1-3,5.1-3.7c5.7-1.2,10.1,0.9,13.6,5.2C664.3,320,666.2,322.2,668.2,324.4z"/>
			<path fill="#B8B8B8" d="M518,448.7c-0.9-1.4-1-2.8-0.2-4.2c2.1-2.6,2.9-6,5.1-8.5c14.9-10.8,25.2-2.5,34.9,8.5
				c4.2-1.8,8.1-2.7,8.9,3.8C550.5,448.4,534.3,448.5,518,448.7z"/>
			<path fill="#B6B6B6" d="M477.8,146.6c5.5,4.6,6.9,10.3,4.2,16.9c-0.9,0.6-1.8,1.2-2.7,1.8c-5.8-0.2-10.2-3.6-14.5-6.9
				c-3.3-3.3-5.6-7.2-6.3-11.9c-0.4-3.5-0.5-6.9-0.5-10.4c-0.4-6.3,1.7-11.5,6.7-15.5c1.5-0.7,2.9-0.6,4.3,0.1
				C477,127.5,479.9,136.2,477.8,146.6z"/>
			<path fill="#6F6F6F" d="M668.7,213.4c0.4,6.2,3,13.6-7.7,13.4c-4.5,3.6-8.8,2.7-13.1-0.6c-3.6-3.8-5.2-8.2-4.4-13.5
				c0.7-2.4,2-4.5,3.8-6.2C656.9,201.2,663.6,204.8,668.7,213.4z"/>
			<path fill="#B5B5B5" d="M487.2,440.4c-0.2,2.8-0.5,5.6-0.7,8.4c-8.7-0.1-17.4-0.3-26.2-0.4c-4.7-4.3-6.3-9.4-3.7-15.5
				c1.1-1.9,2.7-3.3,4.6-4.2c1.8-0.5,3.8-0.7,5.7-0.5c4.1,1.5,8.5,1.4,12.9,1.3C485.9,430.5,484,437.2,487.2,440.4z"/>
			<path fill="#C2C2C2" d="M353.3,120.6c0,1.2,0,2.5,0,3.7c-7.8,10-20.2,0.9-28.9,7.1c-6.1,4-12.5,5.5-19.3,1.8
				c-2.1-8.9-0.5-14.1,10.5-13.4C328.1,120.7,340.7,120.4,353.3,120.6z"/>
			<path fill="#737373" d="M424,448.2c-2.3-4-5.1-7.8-3.7-12.9c1.6-2.8,3-5.9,6.6-6.9c7-0.1,13.6,0.8,17.9,7.3
				c1.9,4.8,0.9,8.9-2.6,12.6C436.2,448.3,430.1,448.3,424,448.2z"/>
			<path fill="#464646" d="M668.7,213.4c-6.6-4.2-13.6-5.4-21.1-3.4c-2-0.9-3.4-2.4-4.2-4.4c-0.9-3.2-0.7-6.3,0.6-9.4
				c3.1-4.8,6.5-8.8,13-6c1.5,0.1,2.6,0.7,3.6,1.9C663.3,199.2,666,206.3,668.7,213.4z"/>
			<path fill="#BCBCBC" d="M305.1,133.2c5.7-1.5,11.5-3,17.2-4.4c5.4-1.5,12-6.5,13.2,4.5c-3,0-6,0-8.9,0c-3,5.8-8.8,8.9-13.3,13.3
				c-2.7-1.4-5.5-2.8-8.2-4.3C305.1,139.3,305.1,136.2,305.1,133.2z"/>
			<path fill="#C0C0C0" d="M660.1,351.1c2.7-5.9,5.4-11.8,8.1-17.7c0,8.9,0,17.7,0,26.6c-2.1,4-4.2,8-6.3,12.1
				c-0.6-2.6-1.3-5.2-1.9-7.8C656.5,360,656.1,355.5,660.1,351.1z"/>
			<path fill="#8E8E8E" d="M650.7,222.5c3.4,1.4,6.9,2.9,10.3,4.3c1.6,2.8,3.2,5.6,4.8,8.4c-6,11.9-14.2,12-23.8,4.3
				c-1.5-2-2.4-4.2-2.6-6.6C640.6,226.7,642.6,221.3,650.7,222.5z"/>
			<path fill="#666666" d="M642.6,235.8c7.8,4.8,15.5,4.5,23.2-0.5c5.3,3.8,3.1,9,2.8,13.9l-2-0.5l-2.1,0.4c-1.5,1.4-3.2,2-5.2,2.1
				c-7.9-0.3-16.1,0.4-21.6-7.2c-0.4-0.9-0.8-1.8-1.3-2.7c-0.3-2,0.1-3.9,1.2-5.6C639.2,234.3,640.9,234.3,642.6,235.8z"/>
			<path fill="#C4C4C4" d="M655.6,293.4c1.4-7.1-3.7-20.3,12.6-13.4c0,5.9,0,11.8,0,17.7C662.4,301.1,659,297.3,655.6,293.4z"/>
			<path fill="#BDBDBD" d="M655.6,293.4c4.2,1.4,8.4,2.9,12.6,4.3c0,7.4,0,14.9,0,22.3c-8.8,2.5-8.6-9.6-15.9-9.7
				c-1.6-1.2-2.8-2.7-3.6-4.6c-0.6-3.1,0.1-5.9,2.7-7.9C652.9,296.3,654.2,294.8,655.6,293.4z"/>
			<path fill="#AFAFAF" d="M437.9,133.2c-9.1-1.4-7.6-6.7-4.7-12.6c6.5-2.6,12,1.3,17.8,3c1.4,1.8,1.8,3.9,1.2,6.1
				C448.3,134.6,443.8,136.9,437.9,133.2z"/>
			<path fill="#7F7F7F" d="M442.3,448.3c-0.1-4.3-0.2-8.6-0.3-12.9c-2.4-2.9-2.6-6.1-0.9-9.4c1.7-1.6,3.6-2.6,5.9-3
				c5-0.1,8.8,1.6,10.2,6.9c-2.2,6.1-0.4,13.5-6.1,18.4C448.2,448.3,445.2,448.3,442.3,448.3z"/>
			<path fill="#B5B5B5" d="M477.8,146.6c-3.9-8.3-9.4-16.1-8.9-25.9c1.5,0,3.1,0,4.6,0c6.4,3.9,10.3,9,8.8,17
				C480.8,140.6,479.3,143.6,477.8,146.6z"/>
			<path fill="#959595" d="M451.4,128.7c-0.2-1.7-0.3-3.4-0.5-5.1c3.4-6.1,8.9-3.1,13.7-3.1c-0.2,5.8-0.4,11.6-0.6,17.3
				c-5.7,3-10.3,1.3-14-3.6C449.1,132.1,449.7,130.3,451.4,128.7z"/>
			<path fill="#323232" d="M388.8,435.6c-1.5,4.3-3,8.6-4.5,13c-1.5,0-3,0-4.5,0c-2.7-3.1-7.7-3.9-8.9-8.6c0-2.8,0-5.6,0-8.3
				c3.3-3.7,7.3-5.2,12.2-3.7C386.4,429.3,388.3,431.9,388.8,435.6z"/>
			<path fill="#7D7D7D" d="M451.1,448.3c0.2-6.2-0.6-12.7,5.1-17.3c1.6-1,3-0.9,4.1,0.7c0,5.6,0,11.1,0,16.7
				C457.2,448.3,454.1,448.3,451.1,448.3z"/>
			<path fill="#C6C6C6" d="M655.7,306.6c14.1-4.9,5.9,11.1,12.5,13.3c0,1.5,0,3,0,4.5c-2.6,0-5.3,0-7.9,0.1
				C656.9,319,655.6,313,655.7,306.6z"/>
			<path fill="#BEBEBE" d="M482.2,137.7c-2.9-5.7-5.8-11.3-8.8-17c2.9,0,5.8,0,8.7,0C482.1,126.3,488.3,132,482.2,137.7z"/>
			<path fill="#3D3D3D" d="M370.9,439.9c5,0.8,8.3,3.4,8.9,8.6c-4.3-0.1-8.5-0.1-12.8-0.2C368.3,445.5,369.6,442.7,370.9,439.9z"/>
			<path fill="#8E8E8E" d="M331.1,324.5c-3.2-7.2-6.5-14.4-9.7-21.6c0.8-2,2.1-3.6,3.8-4.8c8.4-4.4,16.3,0,24.4,1.2
				c3,1.6,5.1,3.9,6.4,7c0.5,2.1,0.7,4.2,0.3,6.4c-2.7,9.3-10.1,13.1-18.5,15.7c-1,0.2-2.1,0.3-3.1,0.5c-1.1-0.2-2.2-0.5-3.3-0.9
				c-1.6-0.6-2.1-1.4-1.7-2.2C330.2,324.9,330.6,324.5,331.1,324.5z"/>
			<path fill="#424242" d="M370.7,400.2c-5.7-11.3-12.4-22.3-8.5-35.9c-1.5-1.3-2.4-2.9-2.6-4.8c0.2-2,1-3.7,2.4-5.1
				c1.9-0.8,3.8-0.9,5.8-0.4c1.9,0.9,3.6,2,5.1,3.5c2.3,2.3,4,4.9,5.4,7.8c3.1,7.1,5.1,14.4,1.3,21.9
				C376.3,391.3,376.3,397.7,370.7,400.2z"/>
			<path fill="#7E7E7E" d="M370.7,400.2c1.6-4.3,3.3-8.6,4.9-12.9c4.2-2,5.3-0.2,4.6,3.8c1.1,10.4,2.3,20.8,3.4,31.2
				c-19,3.9-5.4-13.9-12.1-18.1C371.2,402.9,371,401.5,370.7,400.2z"/>
			<path fill="#BEBEBE" d="M361.5,359.8c0.2,1.5,0.4,3,0.6,4.5c-8.4-0.4-18,2.3-22.5-8.4c0.1-0.9,0.1-1.8,0.2-2.8
				c0.1-2.8,0.2-5.6,0.8-8.3c0.8-1.8,1.9-3.2,3.5-4.4c1.8-0.7,3.7-0.9,5.7-0.6c6,2,9.5,6.2,10.5,12.4
				C360.1,354.9,359.2,357.6,361.5,359.8z"/>
			<path fill="#BDBDBD" d="M326.7,302.1c-1.8,0.3-3.5,0.5-5.3,0.8c-8.3-0.9-9-7-9.3-13.4c1.9-1.6,3.8-3.2,5.7-4.8
				c8.3-5.8,12.4-1.3,15.4,6.2C333.7,296.1,330,298.9,326.7,302.1z"/>
			<path fill="#BEBEBE" d="M344.4,342.8c0,1.4-0.1,2.9-0.2,4.3c-2.2,1.9-2,4.8-3.3,7.1l-1.3,1.7c-7.1-8-3.4-18-4.8-27
				c0.5,0.7,1.2,0.9,2,0.4c4.2-4.7,8.3-9.8,14.2-2C353.6,334.5,346.1,337.4,344.4,342.8z"/>
			<path fill="#4A4A4A" d="M371.5,404.2c5.6,5,1.7,16.4,12.1,18.1c0.7-0.4,1.4-0.7,2.3-0.8c1.8,3.6,1.2,6.8-1.5,9.7
				c-4.5,0.1-9,0.2-13.5,0.3C371.1,422.4,371.3,413.3,371.5,404.2z"/>
			<path fill="#282828" d="M322.2,328.9c-0.7,4.8,0.7,10.8-6.7,11.7c-1,0.1-3.2-1.2-3.2-2C311.7,331.6,318.5,331.8,322.2,328.9
				L322.2,328.9z"/>
			<path fill="#1D1D1D" d="M312.9,378.6c-4.4-4.9-0.2-11.3,1.1-11.6c6.5-1.2,2.8,4.1,2.6,6.5C316.4,375.2,314.3,376.7,312.9,378.6z"
				/>
			<path fill="#1A1A1A" d="M323.2,375.6c1-0.9,2.2-2.5,2.8-2.4c1.2,0.4,2.6,1.7,2.8,2.8c0.4,2.6-0.9,4.4-3.7,3.1
				C324.1,378.8,323.8,376.9,323.2,375.6z"/>
			<path fill="#1B1B1B" d="M331.1,324.5c0.7,1.1,0.8,2.3,0.4,3.6c-1.2,2.8,1,7.8-3.1,8.1c-1.9,0.1-4.2-4.7-6.2-7.2c0,0,0,0,0,0
				C325.2,327.4,328.1,325.9,331.1,324.5z"/>
			<path fill="#BFBFBF" d="M584.5,364.5c-5.2,5-4.3,11.5-4.4,17.8c-11.5,7.6-24.8,13-32.2,25.7c-6.8,4.2-11.7,11.7-20.8,12.1
				c-19.5-4.4-10-22-15-33c-0.2-14.1-4.8-27.5-6.3-41.4c1.8-9.9,6.7-16.7,17.8-13.3c15.8,4.9,16.8-4,16.5-15.7
				c-0.3-10.8-1.4-22.4,12-27.3c18.9-1,22.3,16.4,23.3,26.8c1.3,14.2,3.1,26.7,11.2,38.4C588.7,357.6,587.5,361.6,584.5,364.5z"/>
			<path fill="#C1C1C1" d="M584.5,364.5c-0.5-8.5-8-11.7-12.5-17.3c-5.6-7-25-11.8-3.2-24.9c4.4-2.6-4.6-21.7-15.3-28.9
				c-6.9-10.5-2.3-18.1,7.4-22.3c10.1-4.4,14.4,1.6,14.7,11.4c1.8,25.5,17.8,6.3,26.8,7.4c2.4,0.3,9.6-1.6,13.3-5.2c3,0,6,0,9-0.1
				c5.1,4,7.6,9.2,7,15.8c-0.5,2-1.5,3.8-2.9,5.4c-6.6,3.7-11.8,6.5-9.1,16.8c4.6,17.3-2.6,31.6-17.2,42c-7.3,2.4-11.9,7.5-14,15.2
				C582.9,374.9,585.2,369.4,584.5,364.5z"/>
			<path fill="#C3C3C3" d="M602.3,364.5c-0.1-17.9,18.3-32,7.2-53.7c-5.3-10.3,12.1-6.6,19.5-8.6c3.1-2.5,3.7-6.2,4.9-9.6
				c1-1.6,2.3-2.9,4-3.7c3,1.5,6,3,9,4.5c2.7,7.3,4.3,14.7,0,22c0,3-0.1,6-0.1,9.1c-4.7,5.9,7.3,11.9,0,17.8
				c-1.5,11.5-8.5,19.7-16.2,27.5c-5.4,5.5-9.1,13.9-18.9,12.2C601.3,380.2,607.4,369.2,602.3,364.5z"/>
			<path fill="#BCBCBC" d="M526.7,417.8c4.9-5.8,7.3-15,17.8-13.3c13.2-2.3,26-3,35.6,8.9c-5.8,2.7-11.6,5.4-17.9,8.3
				c1.4,8.3,10.7,2.3,14,8.7c-5.6,5-17.8,2.7-18.3,14.1c-12.1,0.6-22.6-12.1-35.6-4.4C515.9,431.1,520.2,424.2,526.7,417.8z"/>
			<path fill="#BCBCBC" d="M580,413.4c-12.2-1.5-25.4,0.9-35.6-8.9c4.1-19.8,15.6-27.8,35.6-22.2C580,392.6,580,403,580,413.4z"/>
			<path fill="#B6B6B6" d="M646.8,342.2c0.3-5.9-6.2-11.9,0-17.8c2.9,9.7,14.5,15,13.4,26.7c0,4.4,0,8.8-0.1,13.3
				c-3,0.1-5.9,0.1-8.9,0.2C650.7,356.9,652.9,348.7,646.8,342.2z"/>
			<path fill="#C8C8C8" d="M397.8,191.1c4.7,4.9,16.9,0.6,13.9,16.1c-1.7,8.6,14.7,1.4,21.7,6.1c1.3,1.8,1.7,3.8,1.4,6
				c-5.7,12.3-15.5,17.3-28.2,13.2c-7.3-2.3-12.5,1.8-18.7,2.7c-4.8,0.2-8.8-1.6-12.1-5c-3.6-4.7-5.8-9.9-4.7-16
				c1.8-6.5,5.2-11.9,11.3-15.2C388.3,198.2,392.1,192.8,397.8,191.1z"/>
			<path fill="#C3C3C3" d="M367.1,125.1c24.2,3.2,31.8,26.7,48.5,39.3C391.7,161.8,367.8,142.3,367.1,125.1z"/>
			<path fill="#C2C2C2" d="M344.4,186.6c10.6,11.7,24.6-4.9,35.6,4.2c4.4,7.8-3,11-6.1,15.9c-8.7,4.1-14.1,15.4-26.2,12
				c-2.5-1.8-4.2-4.2-5.3-7c-2.7-6.9-11.8-6.9-14.6-13.7c-1.1-4.4-1.1-8.5,2-12.2C334.7,185.3,340.1,174.8,344.4,186.6z"/>
			<path fill="#C3C3C3" d="M420,168.9c3-1.5,5.9-3,8.9-4.4c9.6,1.7,12,8.9,13.4,17.1c-0.3,5.5-2.5,10.8-2.5,16.4
				c-0.5,4.6-1.8,8.8-6.4,11C411.1,201.5,425,182,420,168.9z"/>
			<path fill="#C2C2C2" d="M397.8,191.1c-0.5,6.2-3.5,10.7-9.3,13.2c-5.2-3-8.9-6.5-4.5-12.9c6.1-1.6-0.3-13.7,9.2-11.7
				C398.3,180.8,397.3,186.8,397.8,191.1z"/>
			<path fill="#CFCFCF" d="M335.5,133.3c-3.5-4.2-8.3-4.4-13.2-4.5c9.5-7.5,20.6-3.2,31-4.4C351.8,136.1,347.8,143.1,335.5,133.3z"
				/>
			<path fill="#ADADAD" d="M384,191.4c1.5,4.3,3,8.6,4.5,12.9c-6.1,0.4-8.9,5.8-13.1,8.9c-3.8,1.8-5.3-0.5-6.5-3.5
				c-0.1-2.1,0.7-3.8,2.3-5.2c2.9-4.5,5.9-9.1,8.8-13.6C381.3,191.1,382.6,191.2,384,191.4z"/>
			<path fill="#C8C8C8" d="M433.3,208.9c0-4.5,0-9,0-13.4c3-2.5,6.3-2.7,9.8-1.1c2.8,2.5,4.3,5.6,4.8,9.3c0.3,6.5-2,11.7-7.9,15
				c-2.4,0.9-4.6,0.6-6.7-0.8c0-1.5,0-2.9,0-4.4C433.3,211.8,433.3,210.4,433.3,208.9z"/>
			<path fill="#CBCBCB" d="M344.4,186.6c-4.4-3.6-8.8,0.3-13.2-0.1c-1.2-0.9-1.6-1.9-1.2-2.9c0.4-1,0.7-1.5,1.1-1.5c0-1.5,0-3,0-4.4
				c5.3,0.4,10.9-5.5,15.7-0.2C349.4,180.5,347,184,344.4,186.6z"/>
			<path fill="#B0B0B0" d="M313.3,146.6c0.9-8,7.4-10.3,13.3-13.3C325.7,141.2,321.5,145.9,313.3,146.6z"/>
			<path fill="#B6B6B6" d="M508.9,164.2c-4.6-13.3-20.9-26.6,0-39.9c0.3,7.2-1.3,15.5,8.9,17.8c4.4,1.5-0.5,12.4,8.9,8.9
				c1.5-1.5,2.9-3,4.4-4.4c5.1-0.5,9.5,1,13.4,4.4c0,1.5,0,2.9,0,4.4c-4.2,13.5-15.4,13.8-26.6,14.5
				C514.1,169.3,511,167.6,508.9,164.2z"/>
			<path fill="#1E1E1E" d="M579.9,187.5c4.5,1.3,8.9,2.6,13.4,3.9c3.7-0.9,7.4-2.4,11.4-1.3c3.9,1.2,7.4,3.1,10.3,6
				c2.1,2.6,3.1,5.4,2.7,8.8c-0.9,3.2-2.8,5.8-5.4,7.8c-2.8,1.8-6,2.5-9.1,3.2c-9.9,2.9-19.1,0-28.2-3.7c-1.7-1.4-3.1-3-4.2-4.9
				c-1.6-5.1-3.4-10.1-1.7-15.5C571.3,187.1,576,188.4,579.9,187.5z"/>
			<path fill="#ADADAD" d="M517.5,164.5c9-3,18-6,27-9.1c1.5,0,2.9,0,4.4,0c9.6-0.7,6.7,5.4,4.9,10c-2.2,5.5-6.6,9.6-10.1,14.4
				c-1.6,1.5-3.5,2.6-5.6,3.5c-5.3,0.9-10.4,2.5-15.7,3.4c-4.3-0.2-8-1.5-10.1-5.6c3.8-5.7-3.9-5-4.6-8.2
				C507.1,165.5,514.7,167.9,517.5,164.5z"/>
			<path fill="#B4B4B4" d="M540,177.6c-3-9.8,15.4-11,8.9-22.2c6.4-14.5,16.1-7.9,31.9-2.8c-27.1,2.3-13.9,15.6-14,24.9
				c-3.8,5.7-10.6,4.6-15.9,7c-2,0.4-4,0.4-5.9-0.1C542.1,183.1,540.3,180.9,540,177.6z"/>
			<path fill="#BFBFBF" d="M614.8,168.8c-7.3-1.1-19.8,6.6-20.7-3.9c-0.8-10.1,10.9-17.5,20.7-22.6c11.8,3.5,6.2,11.8,5.2,18.8
				C619.6,164.5,618.2,167.3,614.8,168.8z"/>
			<path fill="#909090" d="M614.8,168.8c0.4-2.8,0.8-5.5,1.2-8.3c3.9-2,5.3,0.4,6.4,3.5c2.2,4.4,5.4,8.5,5.2,13.8
				c-1.9,6.1-3.7,12.2-5.9,18.3c-2.6,3.6-7.2,1.8-10.3,4c-3.1-1.7-6.2-3.3-9.2-5c-3.2-8.7,5.3-9.1,9.1-12.9
				C612.4,177.7,613.6,173.2,614.8,168.8z"/>
			<path fill="#A2A2A2" d="M620.5,164.9c-1.5-1.5-3-3-4.5-4.5c2.9-6.3,3.6-12.4-1.1-18.2c1.9-2.8,3.8-5.5,5.7-8.3
				c9,9.1,4.1,20.1,4,30.4C623.3,165.8,622,166,620.5,164.9z"/>
			<path fill="#ADADAD" d="M548.9,181.3c2.1-19.6,12.6,0.4,17.9-3.8c2.8,1.8,5.6,3.7,8.4,5.5c-2.3,2.2-5.2,3.5-8,4.8
				C559.1,191.4,552.6,190.1,548.9,181.3z"/>
			<path fill="#ADADAD" d="M544.4,151c-5,0-9.8-0.3-13.4-4.4c1.1-3.3,1.6-9.1,3.3-9.6c7-1.7,5.4,7.5,10,9.6
				C544.4,148.1,544.5,149.6,544.4,151z"/>
			<path fill="#C4C4C4" d="M611.2,182.2c-3,4.3-6.1,8.6-9.1,12.9c-3.7,0.5-7.3,1-8.9-3.6C595.5,181.1,603.7,182.4,611.2,182.2z"/>
			<path fill="#161616" d="M566.7,182.8c2.8,0.1,5.7,0.2,8.5,0.3c1.6,1.5,3.1,2.9,4.7,4.4c-2.9,1.2-5.9,2.5-8.8,3.7
				c-1.9,1.2-3.7,1.2-5.5-0.1C563.8,188,564.3,185.2,566.7,182.8z"/>
			<path fill="#C0C0C0" d="M620.5,164.9c1.3-0.2,2.6-0.4,4-0.5c8.4,1.5,16.1,3.9,17.9,13.9c0.6,1.9,0.2,3.5-1.2,4.9
				c-1.6,0.9-3.4,1.4-5.3,1.4c-2.8-0.3-5.3-1.1-7.7-2.7c-1.3-1.3-2.5-2.6-3.6-4C619.6,174.8,620.2,169.8,620.5,164.9z"/>
			<path fill="#565656" d="M638,181.9c1.5-1.2,3-2.4,4.4-3.6c5.2,3.5,15.6,0.8,14.6,12c-3.1,3.1-6.2,6.3-9.4,9.4
				c-4.7,0.2-7.9-2.2-10.4-5.9C635.5,189.7,634.6,185.7,638,181.9z"/>
			<path fill="#C6C6C6" d="M371.1,204.4c0,1.5,0,3,0.1,4.5c-3.4,9,2.9,13.3,8.7,17.7c3,1.5,5.9,3,8.9,4.5c6-0.1,10.1,2.2,11.2,8.5
				c0,3.3-1,6.3-2.4,9.2c-4.7,7.1-7.2,15.7-14.3,21.1c-4.3,2.4-8.7,2.8-13.3,1.1c-2.2-1-3.8-2.6-5-4.7c-3.1-8.7,1.9-18-1.3-25.1
				c-1.7,4.7,6.6,13.6-5.9,16.6c-4.1-3.6-4.5-8.4-4.5-13.4c4.5-5.5,0.9-9.1-2.9-12.7c-3.5-4.3-5.3-8.9-1.5-14
				C359.4,218.6,355.8,195.6,371.1,204.4z"/>
			<path fill="#C6C6C6" d="M331.1,200c8.7-2.6,18.1-6.5,17.7,8.9c-8,6.3,1.3,13.6-1.2,20.2c-1.1,3.8-6,3.3-7.7,6.6
				c0,4.4,0,8.8,0,13.2c-14.9,6-10.8-7-13.3-13.4c-3,0-5.9,0-8.9,0c7.6-9.5,11.8-19.6,4.5-31.3C324.6,201.7,326,196.9,331.1,200z"/>
			<path fill="#CCCCCC" d="M326.7,302.1c1.5-2.9,2.9-5.8,4.4-8.7c2.5-4.1-1.2-10.3,4.4-13.3c5.8,2.9,8.6,7.8,9.3,14
				c4.1,1.6,6.3,4,4.2,8.7C341.5,306.4,334.2,301.5,326.7,302.1z"/>
			<path fill="#C4C4C4" d="M366.5,266.6c1.6,0,3.1,0.1,4.7,0.1c3.2,3.7,4.7,7.8,3.1,12.6c-2,4.7-6,6.7-10.4,8.4
				c-3.5,0.7-6.8,0.2-9.6-2.2l-1.2-1.3c-4.8-7.5,2-12,4.6-17.5c1.5,0,3,0,4.5-0.1C363.7,264.5,365.1,264.4,366.5,266.6z"/>
			<path fill="#C6C6C6" d="M335.5,280c0,4.9-0.3,9.8-4.4,13.3c-2.8-5.4-7.1-8.4-13.3-8.8c-3.1-6-2.1-10.6,4.4-13.5
				C330.7,268.1,330.6,277.7,335.5,280L335.5,280z"/>
			<path fill="#C0C0C0" d="M326.6,235.5c4.9,4,5,12.8,13.3,13.4c-1.5,5.5-4.2,10.4-10.5,6C322.2,249.9,322.8,242.7,326.6,235.5z"/>
			<path fill="#CECECE" d="M366.5,266.6l-2.1,0c0,0-2.1,0-2.1,0c-1.5-2.9-3-5.9-4.5-8.8c2.1-5.1,4.3-10.3,8.7-21
				C366.5,250.3,366.5,258.4,366.5,266.6z"/>
			<path fill="#8C8C8C" d="M354.2,285.5c2.6-0.3,5.1-0.5,7.7-0.8c0.7,0.8,1.3,1.6,2,2.4c0.5,2,0.4,4.1-0.1,6.1
				c-3.3,4.9-4,12-11.4,13.5c-1.1-1.3-2.2-2.7-3.3-4c-1.4-2.9-2.8-5.8-4.2-8.7C348,291.2,351.1,288.3,354.2,285.5z"/>
			<path fill="#BABABA" d="M339.9,235.7c-1.8-4.7,2-4,4.5-4.7c2.9-2.5,5.8-2.5,8.7,0c4.8,4.4,5,8.9,0.1,13.4
				C352,236.7,346.4,235.5,339.9,235.7z"/>
			<path fill="#CFCFCF" d="M335.5,280c-6.2-0.3-9.1-5.6-13.3-8.9C333.1,264.4,333.5,273.4,335.5,280z"/>
			<path fill="#D0D0D0" d="M357.7,266.7c-1.5,5.8-3.1,11.7-4.6,17.5C345.9,276,350.9,271.1,357.7,266.7z"/>
			<path fill="#BBBBBB" d="M437.7,182.1c-3-5.9-5.9-11.8-8.9-17.7c1.5-4.4,2.9-8.8,4.4-13.2c1.7-9,7.3-14,16.2-15.4
				c6.1,1.4,10,6.1,14.6,9.8c1.7,3.5,3.4,6.9,5.1,10.4c10.4,8.7,4.5,14.4-3.5,19.7c-8.7-0.4-15.7,3.9-22.6,8.6
				C441,184.2,439.2,183.5,437.7,182.1z"/>
			<path fill="#B4B4B4" d="M450.7,137.8c-5.8,4.5-11.6,8.9-17.4,13.4c-1.5,0-2.9,0-4.4,0c-1-8,4-12.9,9-17.9c4.5-1.5,9-3,13.6-4.5
				c0.1,1.6,0.2,3.3,0.3,4.9C452.7,135.3,452.3,136.7,450.7,137.8z"/>
			<path fill="#C4C4C4" d="M615.5,284.5c-8.4,6.3-15,13.7-13.6,26.1c-6.4-3.9-2-11.5-8.7-13.6c-8.7,5.7-0.4,17-9.2,25.1
				c-2.5-14.7-17.3-22.2-17.3-37.5c11.2-4.9,5.6-14.9,6.9-22.8c3.1-5.4,9.1-7.4,13.8-10.9c6-2.1,12-2.2,18.1-0.2
				c6.4,3,10.4,7.5,9.2,15.2c-0.8,2-2,3.8-3.4,5.4C611.7,275.9,606.1,282.6,615.5,284.5z"/>
			<path fill="#B2B2B2" d="M650.2,257.7c-4.1,1.6-8.3,3.1-12.4,4.7c-6.9,4.5-12,1.6-16.4-4.1c-3.5-8.4-1.7-15.3,6-20.5
				c3.8-1.6,7.6-1.6,11,0.9l-0.6,1.6c3,6.7,12.3,6.2,15.2,13.1C653.2,255.6,652.2,257,650.2,257.7z"/>
			<path fill="#BEBEBE" d="M623.3,257.1c4.8,1.8,9.7,3.5,14.5,5.3c-3.4,19.7-17.3,7-26.6,8.7c0-1.5,0-3,0-4.5c3.1-2.4,4-6.4,6.7-9.1
				C619.6,256.5,621.4,256.4,623.3,257.1z"/>
			<path fill="#C6C6C6" d="M637.9,288.9c0,1.5,0,3,0,4.5c-2.2,3.1-3.7,7.5-8.9,4.4c-9.5-1.8-3.9-8.5-4.4-13.3
				c5.5-1.9,10.7-6.8,16.9-2.3C641.7,282.4,639.1,286.6,637.9,288.9z"/>
			<path fill="#D4D4D4" d="M650.2,257.7c0.2-1.5,0.3-3,0.5-4.5c2.2-4.3,5.1-7.1,10.4-5.2c1.2,0.1,2.3,0.4,3.4,1.1
				C661.3,254.6,659.2,261.9,650.2,257.7z"/>
			<path fill="#9C9C9C" d="M646.8,315.4c0-7.3,0-14.6,0-22c1.5,1.5,3.1,2.9,4.6,4.4c0,2.9,0,5.8,0.1,8.7c2.2,3.1,2.4,6.1-0.5,8.9
				C649.6,315.4,648.2,315.4,646.8,315.4z"/>
			<path fill="#B9B9B9" d="M331.1,200c-3,1.4-5.9,2.9-8.9,4.3c1.1-8.1-3.5-18.5,8.9-22.1c0,1.5,0.1,2.9,0.1,4.4
				C331.1,191,331.1,195.5,331.1,200z"/>
			<path fill="#2F2F2F" d="M380.2,391.1c-1.5-1.3-3-2.5-4.6-3.8c-1.5-7.6-3-15.2-4.5-22.9c-1.7-1.3-2.9-3.2-4.4-4.8
				c-0.1-1.5-0.2-3.1-0.4-4.6c-1.4-1.9-1.7-4-0.7-6.2c3.2-5.5,8.1-7.5,14.2-6.9c2.2,0.4,4.2,1.3,6.1,2.5c4.3,3.5,5.2,9,8,13.4
				c1.2,6.7,3.6,13.1,5.8,19.5c-0.1,2-1,3.7-2.6,4.9C391.5,385.3,385.8,388.2,380.2,391.1z"/>
			<path fill="#595959" d="M397.1,382.4c0.3-1.5,0.6-2.9,0.9-4.4c-2.5-5.2-3.9-10.1,4.1-11.7c11.5,1.9,12,11.4,13.7,20
				c-1.6,6.6-2.2,13.6-7.4,18.8c-2.1,1.3-4.3,1.3-6.4-0.1C399.7,397.6,404,388.8,397.1,382.4z"/>
			<path fill="#3C3C3C" d="M402,404.9c1.6-0.2,3.2-0.4,4.8-0.6c2.5-2.3,5.3-3.4,8.7-2.8c2.1,0.8,3.6,2.1,4.8,3.9
				c-0.1,1.1-0.2,2.1-0.2,3.2c-12.1,1.4-7.4,11.4-9.3,18.1C402.8,421.6,405.8,411.8,402,404.9z"/>
			<path fill="#242424" d="M384.4,431.2c0.5-3.2,1-6.4,1.5-9.7c4.4-5.5,8.4-7,11.9,0.8c-1.9,5.2-3.1,10.8-8.9,13.3c0,0,0,0,0,0
				C387.4,434.1,385.9,432.6,384.4,431.2z"/>
			<path fill="#323232" d="M388.8,435.6c3-4.4,6-8.9,8.9-13.3C401.8,431.5,396.9,434.6,388.8,435.6z"/>
			<path fill="#ADADAD" d="M526.7,151.1c-11.6,5.7-7.3-4.6-8.9-8.9c0.8-1.9,1-4.7,2.4-5.4c2.8-1.5,3.3,1,3,3.1
				C522.6,144.2,523.1,148.1,526.7,151.1z"/>
			<path fill="#949494" d="M517.5,164.5c-3,2.8-6,5.5-9,8.3c-2.2,2.8-4.9,3-8,1.8c-1.1-1.1-1.6-2.2-1.4-3.4c0.2-1.2,0.5-1.8,0.8-1.8
				c3-1.7,5.9-3.4,8.9-5.1C511.8,164.3,514.6,164.4,517.5,164.5z"/>
			<path fill="#666666" d="M500,169.4c-0.2,1-0.3,2.1-0.5,3.1c-3.1,5-7.6,5.7-12.8,4.5c-4.8-2.6-8.1-5.7-4-11.5c0,0-0.7-2-0.7-2
				C486.9,168.8,493.4,169,500,169.4z"/>
			<path fill="#BABABA" d="M526.7,417.8c5.3,8.8-4.8,14.5-4.5,22.3c-1.5,1.5-2.9,2.9-4.4,4.4c0.7-6.9-7.6-7.8-9-13.3
				c-6.1-5.5-2.8-12.3-2.7-18.6c-1.7-7.7-3.3-15.4-1-23.3c1-1.9,2.3-3.4,4.1-4.5c3.2-1,6.1-0.6,8.5,2
				C531,394.1,512,410.8,526.7,417.8z"/>
			<path fill="#B8B8B8" d="M513.3,413.4c6.6,8-5.7,11.2-4.5,17.8c-7.1-3.1-11.6,3.8-17.7,4.6c-4.7-2.5-7.9-6.3-9.4-11.5
				c-0.8-5.7,0.7-10.6,5.3-14.3C496.7,404.1,505.4,406,513.3,413.4z"/>
			<path fill="#C9C9C9" d="M486.7,426.9c1.5,3,3,5.9,4.5,8.9c-1.3,1.5-2.7,3-4,4.6c-3-3-6-5.9-9-8.9c-0.5-0.8-1.1-1.5-1.6-2.3
				c0.1-2,1-3.5,2.7-4.5C482.1,423.8,484.7,424.4,486.7,426.9z"/>
			<path fill="#424242" d="M425.6,432c-1.8,1.1-3.5,2.2-5.3,3.3c-0.1-8.9-0.1-17.8-0.2-26.7c0,0-0.2,0-0.2,0c2-5.1,4-10.2,10.8-10.2
				c6.2,2.1,7.5,7.2,7.5,12.9c-0.9,6.4-4,11.8-8.2,16.6C428.6,429.3,427.1,430.6,425.6,432z"/>
			<path fill="#B2B2B2" d="M651.1,315.4c0.2-3,0.3-5.9,0.5-8.9c1.4,0.1,2.8,0.1,4.1,0.1c5.2,5,4.2,11.6,4.6,17.9
				C657.2,321.5,654.1,318.4,651.1,315.4z"/>
			<path fill="#7A7A7A" d="M482.7,165.5c1.6,2.8,3.3,5.6,4.9,8.4c0.3,1.1,0.5,2.3,0.8,3.4c-0.4,1.1-0.8,2.2-1.2,3.3
				c-5,6.5-11.3,7.7-18.7,4.6c-4-3-6.5-6.7-4.2-11.9c3.8-5.2,7.9-10.2,4.8-17.3C475.8,156.2,478.9,161.3,482.7,165.5z"/>
			<path fill="#828282" d="M450.7,137.8c0.2-1.4,0.6-2.8,1-4.2c4.1,1.4,8.2,2.8,12.2,4.2c0,2.6,0,5.2,0.1,7.7
				C456.9,147.6,454.1,142.2,450.7,137.8z"/>
			<path fill="#4C4C4C" d="M610.8,208.5c1.6-1.5,3.1-2.9,4.7-4.4c11.7-9.3,21.6-5.1,30.8,4.2c0,0,1.2,1.7,1.2,1.7
				c-0.4,1.1-0.7,2.3-0.8,3.5c-4.1,7.2-10.8,9.9-18.6,10.6c-8.4-0.2-17,1.8-24.7-3.1c-1.8-1.4-2.8-3.4-3-5.6
				c2.1-5.3,6.9-3.5,10.9-4.5C614.9,210,609.6,209.6,610.8,208.5z"/>
			<path fill="#8A8A8A" d="M628.9,218c5.2-4.4,11.3-5.3,17.9-4.4c1.3,3,2.6,6,3.9,9c-2.9,2.9-5.8,5.8-8.7,8.7
				c-1.6,1.4-3.5,2.2-5.6,2.4c-4.7-0.3-7.8-2.8-9.7-7C625.8,223.4,626.4,220.4,628.9,218z"/>
			<path fill="#333333" d="M460.3,431.6c-1.3-0.6-2.7-0.8-4.1-0.7c-3.1-1.5-6.1-3-9.2-4.5c-2.7-2.7-4.9-5.7-5.3-9.7
				c0.2-8.9,4.9-14.3,13.3-16.7c7.2-0.9,12.7,1.8,16.7,7.8c5,10.2,0.6,17.3-7.6,23.1C462.9,431.1,461.6,431.4,460.3,431.6z"/>
			<path fill="#777777" d="M464.2,430.9c1.6-7.1,3.1-14.3,4.7-21.4c0.9-0.5,1.8-1,2.7-1.6c2.1,0.1,4.1,0.8,5.9,1.9
				c5.4,5.5,5.8,11-0.1,16.4l0.5,1c-2.6,2.2-4.1,6.5-8.8,4.3C467.5,431.3,465.8,431.1,464.2,430.9z"/>
			<path fill="#DBDBDB" d="M469.1,431.6c2.9-1.4,5.9-2.9,8.8-4.3c0,1.4,0,2.8,0.2,4.2c-2.9,3.5-2.8,9.7-9.1,10
				C469,438.2,469.1,434.9,469.1,431.6z"/>
			<path fill="#656565" d="M425.6,432c-0.1-1.7-0.3-3.4-0.4-5c5.7-1.7,11.4-14.6,17.1,0c-0.1,2.8-0.2,5.7-0.3,8.5
				C436.5,434.3,431.1,433.1,425.6,432z"/>
			<path fill="#1C1C1C" d="M646.4,208.3c-10.3-1.4-20.5-2.8-30.8-4.2c-1.4-1.4-2.8-2.7-4.2-4.1c1.4-4.2,5.4-3.6,8.6-4.6
				c6.9-4.3,13.1-12,22.2-4.1c1.8,2.8,3.6,5.5,5.4,8.3C647.2,202.6,646.8,205.4,646.4,208.3z"/>
			<path fill="#C1C1C1" d="M638.1,231.5c1.3-0.1,2.6-0.1,3.9-0.2c0.2,1.5,0.4,3,0.6,4.5c-1.6,0.2-3.3,0.4-5,0.6
				c-0.4-0.9-0.8-1.7-1.2-2.6C636.9,233,637.5,232.2,638.1,231.5z"/>
			<path fill="#BCBCBC" d="M661,248c-3.5,1.7-6.9,3.5-10.4,5.2c-5.6-3-11.9-5.4-12.9-12.9C645.5,242.9,653.3,245.4,661,248z"/>
			<path fill="#7C7C7C" d="M638.3,238.7c-3.8,0.6-7.5,1.1-11.3,1.7c-2.3,0.2-3.6-0.9-4-3.1c0.5-2.1,1.7-3.6,3.5-4.6
				c4.3-1.3,8,0.1,11.6,2.3c0,0-0.5,1.3-0.5,1.3C637.9,237.1,638.2,237.9,638.3,238.7z"/>
			<path fill="#5D5D5D" d="M442.3,426.9c-5.7-3.8-11.4,0.9-17.1,0c2.7-4.5,5.4-9.1,8.1-13.6c5.4-1.5,9.7,0.2,13.1,4.4
				c0.2,2.9,0.3,5.8,0.5,8.7C445.4,426.6,443.9,426.7,442.3,426.9z"/>
			<path fill="#A7A7A7" d="M349,328.9c-4.2-3.5-8.2-0.1-12.3,0.5c-3.5-14.7,14.2-9.6,17.1-18.3c2.5-1.2,4.7-0.7,6.4,1.5
				c3.5,6,3.5,11.7-1.2,17.1C355.6,331.6,352.2,331.7,349,328.9z"/>
			<path fill="#D1D1D1" d="M357.3,310.4c-1.2,0-2.3,0.2-3.4,0.6c-0.5-1.5-1-2.9-1.5-4.4c1.2-7.1,1.4-14.7,9.7-17.9
				c12.1,0.9,5.3,8.7,5.2,14C365.1,306.9,361.9,309.7,357.3,310.4z"/>
			<path fill="#BCBCBC" d="M366.9,351.4c-0.2,1.2-0.4,2.5-0.5,3.7c-1.1,0.4-2.3,0.6-3.5,0.6c-2.4,2.5-4.1,2.1-5.2-1.1
				c-3-4.1-5.9-8.1-8.9-12.2c3.1-7.3,7.7-12.3,16.5-10.6C373.5,337.7,370.6,344.5,366.9,351.4z"/>
			<path fill="#E4E4E4" d="M357.7,354.6c1.7,0.4,3.5,0.8,5.2,1.1c-0.2,1.4-0.7,2.8-1.4,4.1C358.7,359.2,354.7,359.4,357.7,354.6z"/>
			<path fill="#414141" d="M366.8,359.7c1.5,1.6,2.9,3.2,4.4,4.8C369.7,362.9,368.2,361.3,366.8,359.7z"/>
			<path fill="#A9A9A9" d="M362.3,333.3c-4.3,3.3-7.2,8.7-13.4,9.1c-1.5,0-3,0.1-4.4,0.4c-7-7.5,2.4-9.5,4.6-13.9
				c3,0,5.9-0.1,8.9-0.1c1.5-1.4,3.1-1.6,4.9-0.5C363.8,330.1,363.6,331.8,362.3,333.3z"/>
			<path fill="#D4D4D4" d="M340.9,354.2c1.1-2.4,2.2-4.7,3.3-7.1C343.1,349.5,342,351.9,340.9,354.2z"/>
			<path fill="#BCBCBC" d="M576.1,262.2c1.7,9.5,8.6,21.2-9.4,22.3c0.7-2.7,2.7-5.8,1.8-7.9c-1.5-3.5-4.7-1.5-6.8,0.1
				c-5.4,4.1-7.4,10.1-8.3,16.6c-12.2,10.3-3,23.5-4,35.1c-1.2,15.8-1,28.3-21.4,14.5c-6.7-4.5-14.6-6.8-19.1,3.8
				c-0.9-0.5-1.7-1-2.6-1.4c-5.2-5.4-6.2-12.3-7.3-19.2c1-5.9-2.2-11.6-1.2-17.5c1.5-4,4.6-6.4,8.4-7.9c5.3-1.3,11.1-0.7,15.9-4
				c5.2-2.6,6.9-8.1,10.1-12.4c7.7-6.1,9.7-16.9,18.3-22.3c6.6-2,13.3-3.7,19.5-6.6c2.1-0.1,4,0.3,5.8,1.3
				C577.2,258.5,577.3,260.4,576.1,262.2z"/>
			<path fill="#BCBCBC" d="M517.8,386.7c-2.7,0-5.3,0-8,0c-7.4-0.1-11.2-4.5-13.3-11c-0.4-7-3.5-13.6-4.1-20.6
				c0.2-2.1,1-4.1,2.1-5.9c4.3-4,8.9-5.7,14.4-2.5c0,0,0,0,0,0C520.3,358.2,517.1,372.9,517.8,386.7z"/>
			<path fill="#B7B7B7" d="M628.9,297.8c3-1.5,6-3,8.9-4.4c6.8,12.6-1.9,9.9-8.8,8.9C629,300.7,628.9,299.2,628.9,297.8z"/>
			<path fill="#BABABA" d="M635.1,313.7c-0.8,2-1.4,4.4-1.8,4.3c-1.9-0.1-3.8-0.9-5.8-1.4c0.5-1.3,0.9-3.5,1.5-3.6
				C630.9,312.8,632.9,313.4,635.1,313.7z"/>
			<path fill="#C6C6C6" d="M397.7,239.1c-3-2.7-5.9-5.4-8.9-8c2.6-4.6,7.2-10.1,11.5-7.6c13.2,7.7,22.4-1.7,32.9-5.8
				c1.5,0,3,0,4.4,0c5.4-0.3,10,1.7,14,5.2c2.1,2.4,3.1,5.3,3.2,8.5c-0.2,2.1-0.8,4-1.7,5.9c-1.1,1.7-2.6,3.1-4.2,4.4
				c-2.4,1.9-4.9,3.5-7.9,4.5c-6.5,0.6-10.1,6.3-15.5,8.9c-2,0.6-4.1,0.7-6.2,0.3c-2-0.7-3.7-1.8-5.3-3.2
				C409.8,246.3,400.2,247.3,397.7,239.1z"/>
			<path fill="#BBBBBB" d="M379.9,226.6c-10.1-2.4-17.1-6.2-8.7-17.7c1.4,1.4,2.8,2.8,4.2,4.2C376.9,217.6,378.4,222.1,379.9,226.6z
				"/>
			<path fill="#CECECE" d="M353.2,231c-2.9,0-5.8,0-8.7,0c3.7-6.9-19.1-19.1,4.4-22.1c0,2.9,0,5.9,0.1,8.8
				C350.3,222.1,351.8,226.5,353.2,231z"/>
			<path fill="#B5B5B5" d="M437.7,182.1c1.5,0,3,0,4.4,0.1c3.8,4.4,4,8.9,0,13.3c-3,0-5.9-0.1-8.9-0.1
				C433.3,190.5,433.6,185.7,437.7,182.1z"/>
			<path fill="#C0C0C0" d="M442.2,195.5c0-4.4,0-8.9,0-13.3c0.6-19.9,9.5-18.9,22.1-8.9c1.4,2.8,2.8,5.6,4.3,8.5
				c0.9,4,2.4,8,0.8,12.2c-0.6,2-1.6,3.7-2.8,5.4c-3.9,3.3-5.6,8.1-8.1,12.4c-2,2.5-4.6,3.9-7.9,4c-7-0.6-5.1-7.9-8.4-11.3
				C442.2,201.4,442.2,198.5,442.2,195.5z"/>
			<path fill="#C5C5C5" d="M442.2,204.4c3.2,3,6.4,6.1,9.5,9.1c3.2,5,3.4,9.6-2.2,13.2c-5.6-0.8-9.4-3.9-11.8-8.9
				C439.3,213.3,440.8,208.8,442.2,204.4z"/>
			<path fill="#2D2D2D" d="M602.8,212.8c-0.3,1.4-0.5,2.8-0.7,4.3c0,4-1.8,6.9-5,9.2c-4.6,2.6-9.5,2.6-14.5,1.8
				c-3.9-0.7-7.1-2.5-9.3-5.9c-2.1-5.2-1.8-9.9,2.9-13.6c8.9-0.9,17.7,4,26.7,0.5c1.6,0.8,2.1,1.6,1.6,2.5
				C603.8,212.4,603.3,212.8,602.8,212.8z"/>
			<path fill="#2D2D2D" d="M566.8,190.8c1.4,0.1,2.8,0.2,4.3,0.4c1.4,4.6,2.7,9.3,4.1,13.9c-2.5,4.3-5.7,7.2-11.2,5.8
				c-3.4-1.6-5.4-4.4-6.3-8.1C557.9,196.7,557.6,190.2,566.8,190.8z"/>
			<path fill="#474747" d="M566.5,208.7c2.9-1.2,5.7-2.4,8.6-3.7c0.3,1.2,0.6,2.4,1,3.5c-0.1,4.3-0.2,8.6-0.3,12.9
				c-1.3,1.7-2.9,2.7-5,3c-4.4-0.3-7.8-2.2-9.9-6.2C559.8,213.3,562.5,210.6,566.5,208.7z"/>
			<path fill="#757575" d="M602.8,212.8c-0.2-1.2-0.2-2.4,0-3.7c2.7-0.2,5.4-0.4,8.1-0.6c4,0.6,7.9,1.3,11.9,1.9
				c0,0.8-0.1,1.6-0.1,2.4C616,212.8,609.4,212.8,602.8,212.8z"/>
			<path fill="#595959" d="M512.6,178.3c2.9,1.6,5.8,3.2,8.6,4.9c1.9,2,1.8,3.9-0.2,5.7c-8.9,6.9-17.5-0.6-26.2-0.7
				c-4.6-1.5-8.5-3.6-8.1-9.4c0.2-0.7,0.3-1.5,0.4-2.3C495.7,175.9,504.5,173.1,512.6,178.3z"/>
			<path fill="#666666" d="M540,177.6c1.5,1.5,3,2.9,4.5,4.4c3.7,6.3,3.9,12-3.1,16.2c-4.3,1.6-8.3,0.3-12.1-1.6
				c-1.7-1.2-3.1-2.6-4.2-4.4c-0.6-1.9-0.6-3.9,0.1-5.8c2.7-4.4,7.9-5.3,11.6-8.5C537.9,178.2,539,178.1,540,177.6z"/>
			<path fill="#C3C3C3" d="M512.6,178.3c-8.5-0.6-17-1.2-25.5-1.8c0.2-0.9,0.4-1.7,0.5-2.6c3.9-0.5,7.9-1,11.8-1.4
				c3,0.1,6,0.2,9,0.3C511,173.8,515.9,173.1,512.6,178.3z"/>
			<path fill="#C5C5C5" d="M536.7,177.9c-0.9,6.1-4.9,8.6-10.5,9.5c-1.5,0.8-2.8,0.5-3.9-0.9c-0.2-1.2-0.6-2.3-1-3.4
				C525.3,178.3,530.9,177.7,536.7,177.9z"/>
			<path fill="#1D1D1D" d="M540.1,196c1.5-4.7,2.9-9.3,4.4-14c1.5-0.2,2.9-0.4,4.4-0.7c5.8,2.7,11.8,2.7,17.9,1.4c0,2.7,0,5.4,0,8.1
				c-4.2,3.4-4.6,8.2-4.8,13.1c-7.8,7.8-15.1,7.5-22.2-1C538.6,200.6,538.7,198.2,540.1,196z"/>
			<path fill="#4C4C4C" d="M642.2,191.4c-7.6,0.4-13.1,12.2-22.2,4.1c-2.2-6.9-1.3-12.9,4.7-17.5c1.2-0.9,2.5-1.3,4-1.3
				c3.3,1.5,6.3,3.6,9.6,5.1c0,0-0.3,0.2-0.3,0.2C639.4,185.1,640.8,188.2,642.2,191.4z"/>
			<path fill="#686868" d="M638.3,181.8c-4-0.2-7.4-1.6-9.6-5.1C634.8,172.9,636.3,177.8,638.3,181.8z"/>
			<path fill="#C6C6C6" d="M384.3,267.4c-2.6-10.2-1.5-18.8,9.7-23.3c6.4-3.6,11-0.2,15.4,3.8c2.7,4.4,2.9,9.1,1.3,13.9
				c-1.6,3.4-3.7,6.2-6.9,8.3c-5.7,2.9-11.4,3.2-17.1-0.1C385.9,269.2,385.1,268.3,384.3,267.4z"/>
			<path fill="#989898" d="M406.8,248.9c-4.3-1.6-8.5-3.1-12.8-4.7c1.3-1.7,2.5-3.4,3.8-5c7.1,3.5,19.6-4.7,21.5,10
				c-1.1,1.3-2.4,2.3-3.8,3c-1.6,0.4-3.3,0.3-4.9-0.1C409.1,251.2,407.8,250.2,406.8,248.9z"/>
			<path fill="#DFDFDF" d="M371.4,279.7c-0.1-4.3-0.1-8.7-0.1-13c4.4,0.2,8.7,0.5,13.1,0.7c0,0,1.4-0.1,1.4-0.1
				c4.9,2.9,7.5,6.7,4.5,12.5C383.9,285.7,377.6,286,371.4,279.7z"/>
			<path fill="#B4B4B4" d="M371.4,279.7c5.6-2.7,11.1-0.7,16.6,0.4c0.5,1,0.9,1.9,1.4,2.9c-1,3.3-3.3,5.4-6.4,6.7
				c-4.3,1.1-8.5,1.2-12.6-0.7c-2.9-1.4-6-2.3-8.4-4.5c0,0,0,0.2,0,0.2C365.1,283,368.2,281.4,371.4,279.7z"/>
			<path fill="#C6C6C6" d="M361.9,284.5c3.5,0.1,6.9,0.2,10.4,0.3c6.2,5.7,8.3,12.2,3.7,20c-1.3,1.7-2.9,3.1-4.8,4.1
				c-4.4,0.6-8.6,0.9-9-5.3c-0.4-4.9,3.5-9.9-0.1-14.8C362.1,287.3,362.1,285.9,361.9,284.5z"/>
			<path fill="#4D4D4D" d="M602.4,254.2c-4.7,2.2-9.2,2.4-13.4-1.1c-4.2,1.1-8.4,1.8-12.5-0.3c-4.3-2.1-7.1-5.3-7.4-10.3
				c0.3-2.4,1.4-4.3,3.3-5.9c10.2-5.8,20.2-2.1,30.3,0.5c4.6,0.5,9.1,1.3,12.6,4.9c4,7.3-0.4,10.3-6.4,12.4
				C606.6,255.3,604.5,255.2,602.4,254.2z"/>
			<path fill="#BCBCBC" d="M602.4,254.2c1.5-0.5,3.1-1.1,4.6-1.6c5.3-0.8,11.9-5.4,13.2,4.8c-0.7,5.3-3.6,8.5-8.9,9.3
				C610.9,260.6,606,257.8,602.4,254.2z"/>
			<path fill="#C4C4C4" d="M579.9,249.7c3.7-0.6,7.2-0.9,9.1,3.4c-1.1,7.5-6.4,9.2-12.9,9.2c-0.2-1.6-0.4-3.2-0.6-4.8
				C573.4,252.8,576.3,251,579.9,249.7z"/>
			<path fill="#404040" d="M620.2,257.4c-4.4-1.6-8.8-3.2-13.2-4.8c2.9-2.3,5.9-4.5,8.8-6.8c1.5-4.9,3.3-9.3,9.6-5.1
				c0,0,1.7-0.2,1.7-0.2c-1.3,5.6-2.5,11.1-3.8,16.7c0,0-1.6-0.1-1.6-0.1L620.2,257.4z"/>
			<path fill="#A1A1A1" d="M384.4,347.4c-1.5-0.5-3-1-4.4-1.4c-18.1-5.7-12.8-13.2-1.6-21.2c4.7-1.9,9.4-1.8,14.1,0.2
				c4.5,2.4,7.3,6.1,8,11.3c0,3.7-1.3,6.9-3.6,9.7C393.1,349.3,389,350.3,384.4,347.4z"/>
			<path fill="#2C2C2C" d="M384.4,347.4c3.5-1.2,7.8-1,9.7-5.3c4.8-3.2,9.7-5.6,15.6-2.5c5.6,5.1,2.3,9.8-0.7,14.5
				c-3.6,3.7-5.4,9.1-10.5,11.4c-5.3,1.8-7.2-2.3-9.6-5.5C384.8,356.7,384.4,352.1,384.4,347.4z"/>
			<path fill="#848484" d="M380.5,329.7c-8,5.2-9,10.6-0.5,16.3c-4.4,1.8-8.7,3.7-13.1,5.5c-1.2-6.1,0.5-13-4.6-18.1
				c-0.1-1.5-0.1-2.9-0.1-4.4c1.2-5,4.6-7.2,9.5-7.6C376.5,322.1,379.8,324.5,380.5,329.7z"/>
			<path fill="#292929" d="M388.9,360c2.9,1.5,5.7,3,8.6,4.5c1.3,0.9,1.8,1.9,1.5,3c-0.3,1.1-0.6,1.7-1,1.7c0.8,2.9,4,5.8,0,8.7
				C387.7,375.7,389.1,367.4,388.9,360z"/>
			<path fill="#3E3E3E" d="M398,369.3c-0.2-1.6-0.4-3.2-0.6-4.7c0.3-4.8,0.5-9.7,4.6-13.2c9.7,0.6,15.3,6.4,18.9,14.8
				c0.9,3,1.1,6.2,1.4,9.3c0.8,4.1,1.8,8.2-0.3,12.3c-2.6,3.7-5.9,5.8-10.6,4.8c-1.3-1-1.8-2-1.6-3.2c0.2-1.2,0.5-1.9,0.9-1.9
				C407.2,380.8,408.2,371.1,398,369.3z"/>
			<path fill="#ADADAD" d="M410.7,387.4c0.2,1.2,0.5,2.4,1,3.5c6,3.4,9.1,7.9,5.7,14.9c-3.5-0.5-7.1-0.9-10.6-1.4
				C407.9,398.6,404,391.8,410.7,387.4z"/>
			<path fill="#4D4D4D" d="M417.5,405.8c-1.9-5-3.8-9.9-5.7-14.9c2.8-1.4,5.5-2.8,8.3-4.3c3.4-2.9,6.7-2.6,10.1-0.1
				c2.9,4.9,2.6,9.4-1.3,13.6c-3,2.8-5.9,5.7-8.9,8.5C419.1,407.7,418.3,406.8,417.5,405.8z"/>
			<path fill="#BBBBBB" d="M513.3,413.4c-9,0.1-18.1,0.1-27.1,0.2c-6.6,0.8-7.3-4-8-8.7c0.2-2.4,0.9-4.5,2.2-6.5
				c8.7-5.3,16.8-12.9,28.3-7.6C510.3,398.3,511.8,405.8,513.3,413.4z"/>
			<path fill="#3B3B3B" d="M508.8,390.7c-7.6,6.3-16.3,9.4-26.3,8.5c-4.1-2.5-4.8-6.4-4.4-10.8c0.4-2,1.2-4,2.3-5.7
				c5.4-4.6,4.6-14.1,13-16.4c4.9-0.2,8.2,1.5,8.2,7.1c2.8,4.4,5.5,8.9,8.3,13.3C509.3,388,508.9,389.3,508.8,390.7z"/>
			<path fill="#9B9B9B" d="M481.9,404.9c1.4,2.9,2.9,5.7,4.3,8.6c0.1,4.4,0.3,8.9,0.4,13.3c-3.1-0.2-6.2-0.5-9.3-0.7
				c1-6.2-1.6-11.5-4-16.9c0.3-0.9,0.6-1.9,0.9-2.8C476.5,404.3,478.8,402.7,481.9,404.9z"/>
			<path fill="#6A6A6A" d="M428.9,400.2c0.1-4.3,0.3-8.5,0.4-12.8c2-8.1,8-11.9,15.3-14.3c3.2-0.5,6.3-0.1,9.3,1.2
				c1.8,1.1,3.2,2.5,4.3,4.3c1.8,5.8,1,11.9,1.9,17.8c-0.4,3.1-2.1,5.5-4.1,7.7c-5.9,2.6-8.3,7.7-9.5,13.7c-4.9,0-9.6-0.4-13.1-4.4
				C433.2,408.5,432.9,403.7,428.9,400.2z"/>
			<path fill="#2A2A2A" d="M486.7,178.8c3,1.3,6,2.5,9,3.8c4.7,3.8,8.7,8,7.2,14.8c-15.6,15.3-22.7,15-37.7-1.7
				c-0.3-5-2.8-10.6,3.4-14C474.6,180.8,480.7,179.8,486.7,178.8z"/>
			<path fill="#9B9B9B" d="M602.5,243.3c-10.4,0.7-20.2-6.5-30.8-2.1c-3.5-0.5-5.8-2.5-7.2-5.6c-1-6.1,1-10.6,7.1-12.7
				c1.4-0.4,2.8-0.8,4.1-1.3c2.8,0.4,5.7,0.8,8.5,1.2c5,5.6,9.3,4.4,13.2-1.2c1.5-1.5,3-3,4.5-4.5c9,0.3,17.9,0.6,26.9,0.9
				c0.1,2.5,0.3,5.1,0.4,7.6c-0.4,1-0.7,1.9-1.1,2.9c-1.5,1.4-3.3,2.4-5.2,3C615.8,234.6,608.2,237.3,602.5,243.3z"/>
			<path fill="#A8A8A8" d="M638.2,235c-4.4,0.4-8.8,0.8-13.2,1.2c-1.5-1.2-2.1-2.7-1.9-4.6c1.3-2.5,4.1-3.2,6-5.1c0,0,0.3-1,0.3-1
				c2.9,1.9,5.9,3.9,8.8,5.9C638,232.7,638,233.8,638.2,235z"/>
			<path fill="#AEAEAE" d="M455.9,404.1c-0.4-2.6-0.9-5.2-1.3-7.9c2.7-5.5,6.7-8.2,12.1-3.8c5.1,4.1,6.8,9.4,2,15.2l0.1,1.9
				C464.6,407.7,460.3,405.9,455.9,404.1z"/>
			<path fill="#BBBBBB" d="M468.8,407.6c-2.3-6.7-2.1-16.6-14.1-11.4c-7.1-7-1.6-12.7,2.1-18.5c6.6-7.2,14.5-8.7,23.5-5.3
				c4.9,4.1,6.2,8.9,2.6,14.5l-1.4-0.4c-4.4,6.6-2.2,15.8-8.4,21.7c0,0,0.4,1,0.4,1C471.9,408.7,470.3,408.2,468.8,407.6z"/>
			<path fill="#B0B0B0" d="M624.5,231c0.1,1.7,0.3,3.5,0.4,5.2c0,1.5,0.1,3,0.4,4.4c-3.2,1.7-6.4,3.4-9.6,5.1
				c-4.4-0.8-8.8-1.6-13.2-2.4c-0.6-15.9,10.2-17,21.9-16.8c1.3,1,1.7,2,1.3,3C625.4,230.5,624.9,231,624.5,231z"/>
			<path fill="#9B9B9B" d="M370.9,324.4c-2.9,1.5-5.8,3-8.8,4.5c-1.4,0-2.8-0.1-4.2-0.1c-0.2-6.1-0.4-12.2-0.7-18.4
				c1.6-2.3,3.2-4.6,4.8-6.8c2.8,0.9,5.5,1.8,8.3,2.6c2.2,1.2,3.7,3,4.6,5.3C376.4,316.7,375,321,370.9,324.4z"/>
			<path fill="#232323" d="M465.2,195.8c11.6,2.4,23.3,11.4,34.9-0.3c2.7-2.2,5.6-1.8,8.6-0.8c5.1,3.4,12,3.1,16.3,8.2
				c4.9,11.5,9,23.1,6.5,35.9c-1.3,4.5-2.5,9-1.1,13.7c0.6,3.8-0.3,7.4-1.1,11.1c-0.6,3.8,0.8,7.2,1.8,10.8c0.5,1.9,0.7,3.8,0.7,5.8
				c-0.9,5.9-3,11.3-5.4,16.7c-1.2,1.6-2.5,3-4,4.3c-3.9,3.3-9.5,2.3-13.5,5.3c-2.8,1.6-5.7,3.2-8.5,4.8c-1.2,2-2.9,3.6-5,4.7
				c-4.4,1.6-8.8,1.6-13.2,0.3c-9.4-3.9-8.6-12.7-10-20.5c-3-18-13.6-31.8-24.8-45.3c-1.2-3.2-1.2-6.4-0.1-9.7
				c0.9-2,2.1-3.9,3.5-5.7l-0.2-0.1c8.5-8.9,8.5-20.3,8.8-31.5c0.7-3.1,2.4-5.7,4.3-8.2L465.2,195.8z"/>
			<path fill="#C0C0C0" d="M508.9,346.7c-4.5,1.5-9,3-13.4,4.5c-13.4,0.4-14.4-7.9-12.8-18.1c5.3-8,10.7-15.4,21.8-8.6
				C508.3,331.4,509.2,338.9,508.9,346.7z"/>
			<path fill="#292929" d="M526.6,279.9c0-1.4,0-2.8,0-4.2c-0.3-10.2,8.7-13.9,14.2-20c1.8-1.2,3.8-2.1,5.9-2.6
				c3.3-0.5,6.4,0,9.4,1.5c1.8,1.3,2.8,3,3.1,5.2c-0.6,3.4-3.3,5.1-5.8,6.9c-4.9,8.3-8.6,17.5-17.9,22.2c-1.3,1.6-3,2-4.9,1.2
				C527,287.5,529.3,282.7,526.6,279.9z"/>
			<path fill="#B0B0B0" d="M504.4,324.5c-7.4,0-11.9,6-17.9,8.8c-1.5,1.6-3.2,1.8-5.1,0.7c-1.2-1.7-1.8-3.6-1.9-5.6
				c0.3-3.1,1.6-5.9,3.5-8.3c3.3-4,8-6.1,12.6-8.2c1.6-0.2,3.1-0.4,4.7-0.6C505.4,314.6,510.5,317.8,504.4,324.5z"/>
			<path fill="#C3C3C3" d="M579.9,249.7c-1.5,2.6-2.9,5.2-4.4,7.8c-1.2,0-2.4,0-3.6,0.1c-4.7,4-9.4,4.3-14.2,0.3l0.3-0.4
				c-4.4-13.6,1.7-16.7,13.8-13.8C574.6,245.6,577.3,247.6,579.9,249.7z"/>
			<path fill="#6D6D6D" d="M557.8,257.8c4.7-0.1,9.5-0.2,14.2-0.3c-1.7,12.1-11.1,8.8-18.6,9.2C554.8,263.7,556.3,260.8,557.8,257.8
				z"/>
			<path fill="#181818" d="M531,288.7c1.5,0.1,3,0.1,4.5,0.2c0.3,6.6-2.6,11.1-8.8,13.4c-4.8,1.7-5.5-0.5-4.4-4.5l-0.1,0.2
				C526.1,295.8,522.4,286.4,531,288.7z"/>
			<path fill="#343434" d="M522.4,297.7c1.5,1.5,2.9,3,4.4,4.5c-4.9,5.9-11.3,5-17.8,4.2C513.4,303.6,517.9,300.7,522.4,297.7z"/>
			<path fill="#AEAEAE" d="M482.8,333.3c1.2,0,2.5,0,3.7,0c-0.2,7.5,1.6,14.1,8.9,17.9c0.1,1.4,0.1,2.9,0.2,4.3
				c0.3,6.6-6.1,10.2-7.2,16.2c-2.6,4.6-6,4.8-10,1.9c-6.1,7.1-13.5,7.7-21.7,4.2c0,0-2,0-2,0c-2.7-3.5-4-7.3-2.8-11.7
				c2.7-8.5,15.3-8.7,16-19c0.9-2.6,2.2-5.1,3.8-7.3c1.6-2.2,3.6-3.9,6-5.2C479.4,333.9,481.1,333.4,482.8,333.3z"/>
			<path fill="#A0A0A0" d="M486.9,369.5c-0.1-6.5,3-11.1,8.7-14c2.7,5.7,16,8,5.9,17.9c-2.5-3.8-5.4-6.6-10.4-4.2
				C489.9,371.3,488.5,371.4,486.9,369.5z"/>
			<path fill="#575757" d="M464.3,204.2c-0.7,12,4.6,26.7-13.7,30.9c-0.3-2.8-0.7-5.6-1-8.4c0.7-4.4,1.5-8.8,2.2-13.2
				c1.2-1.6,2.4-3.2,3.6-4.7C457,204.6,459.5,202.1,464.3,204.2z"/>
			<path fill="#747474" d="M424.4,253.3c0.6-11.6,8.7-13.7,18-14.2c5.9,6.7,4.9,13.1-0.7,19.4c-2,1.5-4.2,2.4-6.6,2.7
				c-3.8,0-6.9-1.6-9.3-4.5C425.3,255.6,424.8,254.4,424.4,253.3z"/>
			<path fill="#AAAAAA" d="M437,257.2c3.7-5.5,5.5-11.5,5.4-18.1c1.3-1.3,2.6-2.5,3.9-3.7c1.8,1.4,3.6,2.9,4.4,5.2
				c0.3,2.8,0.5,5.6,0.8,8.3c1.8,4.6,0,8-3.5,10.8c-1.9,0.9-3.9,1.2-6.1,1.1C439.8,260.2,438.2,259,437,257.2z"/>
			<path fill="#848484" d="M415.5,248.7c1.2,0.1,2.5,0.2,3.7,0.4c0.3,1.5,0.5,3.1,0.8,4.6c1.5,1.4,2.2,3.2,2.1,5.3
				c-1.6,4.6-4.7,6-9.2,4.6c-4.2-3.2-2.2-6.8-0.9-10.5C413,251.6,414.2,250.1,415.5,248.7z"/>
			<path fill="#555555" d="M420.5,257.2c-0.2-1.2-0.3-2.3-0.6-3.5c1.5-0.1,3-0.3,4.4-0.4c0,0-0.5,0.5-0.5,0.5
				C425.3,257.4,424,258.4,420.5,257.2z"/>
			<path fill="#4C4C4C" d="M450.6,240.6c-1.5-1.7-2.9-3.5-4.4-5.2c1.5-0.1,3-0.2,4.5-0.2C450.7,236.9,450.7,238.8,450.6,240.6z"/>
			<path fill="#D4D4D4" d="M464.3,204.2c-3,1.5-5.9,3-8.9,4.6c-5.9-9.8,1.7-11.3,8.3-13.4C463.9,198.3,464.1,201.2,464.3,204.2z"/>
			<path fill="#929292" d="M597.5,221.5c-0.1,6.9-0.6,14.3-10.2,13c-8.6-1.2-4.5-7.2-3.1-11.8C588.7,222.4,593.1,222,597.5,221.5z"
				/>
			<path fill="#2F2F2F" d="M540,199.9c6.9,3.9,14.2,4.9,22,4c1.5,1.6,3,3.2,4.6,4.8c-1.3,3-2.7,5.9-4,8.9c-1.6,1.4-3.5,2.1-5.7,2.1
				c-6.4-3.2-14.2-4.1-18.4-11C537.3,205.5,537.5,202.5,540,199.9z"/>
			<path fill="#2E2E2E" d="M557.4,217.6c1.7,0,3.4,0,5.1,0.1c3,1.7,6.1,3.4,9.1,5.2c-1.7,4.2-3.4,8.5-5.1,12.7
				c-0.9,1.3-2.2,2-3.8,2.1c-1.3,0.9-2.3,2-3,3.6c-2.7,4.2-6,7.7-10.6,9.5c-5.6,1.1-7.4,5.1-7.8,10.2c-6.1,4.2-11.8,13.1-19,1.4
				c1.5-3,3-5.9,4.4-8.9c-1.3-4.4-4-8.8-0.3-13.3c-1.4-11.9-2.8-23.7-4.2-35.6c1.8-1.2,3.7-1.5,5.8-1c6.3,2.9,10.1,10.3,18.3,9.9
				C550.5,213.4,554.4,214.3,557.4,217.6z"/>
			<path fill="#1F1F1F" d="M504.5,200c-1.5-1.5-2.9-3-4.4-4.5c-1.5-4.3-2.9-8.6-4.4-12.9c8.9,1.3,17.7,2.7,26.6,4
				c1.3,0.3,2.6,0.6,3.9,0.9c0.1,1.2,0.3,2.4,0.7,3.5c-0.7,5.2-10.8,1.4-8.8,9.2C513.5,202.9,508.9,203.3,504.5,200z"/>
			<path fill="#282828" d="M504.5,200c4.9,0,9.8-0.3,13.4-4.3c4-2.5,9.3-0.6,12.9-3.9c3.1,1.4,6.2,2.8,9.3,4.2c0,1.3-0.1,2.6-0.1,4
				c0,3,0,6,0.1,9c-0.9,0.4-1.9,0.9-2.8,1.3c-4.3-0.5-7.7-2.8-10.6-5.9l-2.2,0c0,0-2.2,0-2.2,0C516,204.2,509.5,205.2,504.5,200z"/>
			<path fill="#191919" d="M530.8,191.7c-2.8,6.3-7.4,6.5-12.9,3.9c-0.2-7.8,6-3.1,9-4.7C528.3,190.9,529.6,191.1,530.8,191.7z"/>
			<path fill="#8C8C8C" d="M402.2,266.4c1.2-1.3,2.5-2.6,3.7-3.9c1,0.2,1.9,0.3,2.9,0.5c1.8,1,3.4,2.2,4.9,3.6
				c1.1,1.8,1.7,3.8,2,5.9c-0.8,9.1-5.6,13.8-14.8,14.1c-3.5-1-5.7-3.3-6.8-6.8C392.9,272.9,397.6,269.7,402.2,266.4z"/>
			<path fill="#606060" d="M402.2,266.4c-1.5,4.5-3,9.1-4.5,13.6c-2.8,2.8-5.4,2.6-8-0.3l-1.7,0.5c-0.8-4.3-1.6-8.6-2.3-12.8
				C391.2,267,396.7,266.7,402.2,266.4z"/>
			<path fill="#282828" d="M415,254.7c-1.2,2.5-2.3,5-3.5,7.5c-0.8,0.6-1.7,1.2-2.5,1.9c-0.7-0.8-1.5-1.5-2.2-2.3
				c0,0-0.9,0.7-0.9,0.7c0.3-4.5,0.6-9.1,0.9-13.6c1.4,0,2.8,0,4.2,0C413,250.4,414.5,252.1,415,254.7z"/>
			<path fill="#838383" d="M415,254.7c-1.4-1.9-2.7-3.8-4.1-5.7c1.5-0.1,3.1-0.1,4.6-0.2C415.4,250.7,415.2,252.7,415,254.7z"/>
			<path fill="#6F6F6F" d="M389.7,279.7c2.7,0.1,5.3,0.2,8,0.3c1.3,1.6,2.7,3.2,4,4.8c4.5,1.3,6.8,4.5,7.9,8.8
				c0.4,4.6-1.2,8.5-4.1,12c-2.4,2.5-5.2,4.3-8.6,5.1c-3.5,0.6-6.9,0.1-10.2-1.4c-3.1-1.9-5.3-4.6-6.5-8.1
				c-0.8-5.9-0.9-11.7,3.9-16.2C386,283.2,387.8,281.5,389.7,279.7z"/>
			<path fill="#4E4E4E" d="M384.1,285c0.4,5.9,0.7,11.7,1.1,17.6c-4.8,9.9-9.3,7.8-13.5-0.5c3.3-5.6,0.5-11.5,0.6-17.2
				C376.3,284.9,380.2,285,384.1,285z"/>
			<path fill="#6F6F6F" d="M371.7,302.1c4.4,2.7,8.8,5.8,13.5,0.5c1.3,1.6,2.5,3.1,3.8,4.7c-0.4,8.4-6,8.4-12.2,7.7
				c-2.1-1-4-2.3-5.7-3.9c-0.2-1.6-0.5-3.3-0.7-4.9C371,304.9,371.5,303.5,371.7,302.1z"/>
			<path fill="#8F8F8F" d="M562.3,235.4c1.4,0.5,2.9,0.5,4.3,0.1c1.7,1.9,3.4,3.8,5.2,5.7c0.2,0.8,0.3,1.5,0.2,2.3
				c-7.8,1.5-12.8,5.6-13.8,13.8c-2.5,0-5-0.1-7.6-0.1c-5.5-2.7-9.3-6-4.8-12.5c6.9,0.9,9.5-4.8,13.1-8.8
				C559.8,234.1,560.9,233.9,562.3,235.4z"/>
			<path fill="#2C2C2C" d="M397.7,337.8c-1.1-2.9-2.2-5.8-3.4-8.7c-0.2-1-0.5-1.9-0.7-2.9c-0.2-3.1,0.8-5.9,2.9-8.2
				c1.6-1.3,3.4-2.2,5.4-2.8c7.1-0.7,14.2-2.1,21.4-0.9c3.3,0.8,6.1,2.4,8.4,4.9c2.9,3.8,3.7,8.1,3.9,12.7
				c-4.4,24.3-5.4,25-21.3,14.6C412.8,336,402.4,342.4,397.7,337.8z"/>
			<path fill="#737373" d="M371.1,311.1c1.7,0.1,3.4,0.2,5.2,0.4c5.4,6.3,19.3,4.2,17.4,17.6c0,0,0.7,0,0.7,0
				c-4.6,0.2-9.2,0.4-13.9,0.5c-3.2-1.7-6.4-3.5-9.6-5.2C371,320,371.1,315.6,371.1,311.1z"/>
			<path fill="#191919" d="M397.7,337.8c6.3-0.2,13.8-5.1,17.8,4.4c-1.5,1.4-2.9,1.4-4.4,0c-5.6-0.1-11.3-0.1-16.9-0.2
				C393.6,339.2,395.3,338.2,397.7,337.8z"/>
			<path fill="#2B2B2B" d="M411.1,342.3c1.5,0,3,0,4.4,0c18.1,17.5,8.1-7.1,13.4-8.9c23.3-3.2,17.8,14.7,19.9,27.1
				c-2,4.1-5.2,6.5-9.8,7.2c-5.4-3-8.8-0.7-11.3,4.2c-4.3,2-8.2,1.1-11.9-1.6c-4.6-6.3-9.1-12.6-13.7-18.8
				C405.1,348.3,408.1,345.3,411.1,342.3z"/>
			<path fill="#2C2C2C" d="M446.6,377.5c-5.9,3-9.8,9.5-17.3,9.8c-3.1-0.2-6.2-0.5-9.3-0.7c-1.5-3.1-2.9-6.2-4.4-9.4
				c2.4-2,5.2-3.4,8.3-3.8c5.5,0.4,9.9-3.4,15.1-3.9C443.6,370.4,447.7,371.5,446.6,377.5z"/>
			<path fill="#737373" d="M424.1,377.5c-2.8-0.1-5.7-0.1-8.5-0.2c0.1-2.4,0.1-4.8,0.2-7.2c4.4-0.4,8.7-0.8,13.1-1.2
				C431.2,373.9,427.3,375.5,424.1,377.5z"/>
			<path fill="#AEAEAE" d="M473,408.3c0.3-8.2,0.2-16.6,8.4-21.7c0.3,4.2,0.7,8.5,1,12.7c-0.2,1.9-0.4,3.8-0.6,5.7
				C478.9,406,476,407.1,473,408.3z"/>
			<path fill="#3D3D3D" d="M486.9,369.5c1.4-0.4,2.8-0.5,4.2-0.3c1.7,8,3.9,16.2-8.3,17.8c-1.5-4.5-2.9-8.9-4.4-13.4
				C481.9,373.6,485.3,373.4,486.9,369.5z"/>
			<path fill="#252525" d="M446.6,377.5c-2.9-1.4-5.7-2.8-8.6-4.2c-2.6-2.8-3-5.8-0.4-8.8c3-1.5,6.1-3,9.1-4.5
				c1.1-1.6,2.6-2.1,4.5-1.7c2.5,1.4,4,3.4,3.8,6.4c-0.1,4.3-0.2,8.7-0.3,13C452,377.7,449.3,377.6,446.6,377.5z"/>
			<path fill="#B8B8B8" d="M624.5,231c0-1.5,0-3,0-4.5c1.5,0,3,0,4.5,0C627.5,228.1,626,229.6,624.5,231z"/>
			<path fill="#282828" d="M446.5,257.2c1.6-2.7,3.3-5.5,4.9-8.2c21.4,12.4,28,32,27.7,55.4c0,2.4,2.5,4.8,3.9,7.2
				c0.7,2.2,0.3,4.1-1.3,5.8c-8.6,4.8-14.2-1.3-20.4-5.4c-2.4-2.2-3.9-4.9-4.7-8c-0.1-6.8,0.9-13.9-3.2-20.1
				C448.7,275.4,436.4,269.1,446.5,257.2z"/>
			<path fill="#323232" d="M522.3,262.3c7.1,3.4,12.9,1.4,17.7-4.4c1.5-1.1,2.9-1.1,4.4,0c-1.8,10.1-11.3,12.5-17.8,17.9
				C517.2,273.8,519.5,268.1,522.3,262.3z"/>
			<path fill="#222222" d="M526.5,240c1.9,4.4,5.5,8.8,0.3,13.3C516,249.1,515.3,244.7,526.5,240z"/>
			<path fill="#8F8F8F" d="M480.8,315.7c0.7-1.4,1.4-2.8,2.1-4.2c4.2,0.1,8.5,0.3,12.7,0.4c-3.1,4.2-6.1,8.4-9.2,12.6
				C478.9,325.2,479.6,320.7,480.8,315.7z"/>
			<path fill="#363636" d="M531,288.7c-2.9,3.1-5.8,6.1-8.8,9.2c1.5-6,2.9-12,4.4-18C528.1,282.8,529.5,285.8,531,288.7z"/>
			<path fill="#232323" d="M544.4,257.8l-2.2,0c0,0-2.2,0-2.2,0c-6.5-8-3.1-11.7,5.7-13.1c1.6,4.2,3.2,8.3,4.8,12.5
				C548.5,257.4,546.5,257.6,544.4,257.8z"/>
			<path fill="#2B2B2B" d="M482.8,333.3c-0.6,1.2-0.8,2.5-0.7,3.9c-1.3,1.9-2.9,3.5-4.6,5c-2.5,0.6-3.9,2-3.5,4.7
				c-1.5,9.8-8.2,12.2-16.8,12c-11-14.1-9.3-23.9,7.1-40.8c8.8-0.8,13.1,6.1,18.5,11.1C482.3,330.5,482.3,332,482.8,333.3z"/>
			<path fill="#1A1A1A" d="M482.7,329.1c-8,0.8-13.3-3.8-18.3-9c-3.8-4.5-4.3-9-0.1-13.6c5.5,3,11,6.1,16.6,9.1
				c0.7,3.7,1.1,7.5,5.6,8.8C485.2,326,484,327.6,482.7,329.1z"/>
			<path fill="#BFBFBF" d="M455.6,355.8c7.8,0.5,12.9-4.6,18.4-9c3.6,16.5-8.5,16.3-19,17.8c-1.4-1.6-2.9-3.1-4.3-4.7
				C450.2,356.1,451.2,354,455.6,355.8z"/>
			<path fill="#C0C0C0" d="M477.4,342.2c1.5-1.7,3.1-3.3,4.6-5C480.5,338.9,479,340.5,477.4,342.2z"/>
			<path fill="#BDBDBD" d="M437,257.2c1.9,0.2,3.9,0.5,5.8,0.7c2.5,6.8,2.3,13.8,2,20.9c-1.1,2-2.6,3.4-4.6,4.4
				c-4.7,1.5-9,0.8-12.8-2.4c-2.5-2.7-3.8-6-4-9.6c0.1-6.9,3.7-11.1,9.9-13.4C434.6,257.7,435.8,257.5,437,257.2z"/>
			<path fill="#727272" d="M433.3,257.8c-1.8,4.5-3.5,8.9-5.3,13.4c-4.1,4.4-8.3,3.6-12.6,0.3c-1.4-1.3-2.8-2.5-4.2-3.8l-0.2-0.9
				c-1.1-0.9-1.5-1.8-1-2.7c0.4-0.8,0.9-1.2,1.3-1.2c0,0,0.3-0.6,0.3-0.6c3-1.6,6-3.3,9-5c1.2-1.1,2.3-2.3,3.4-3.4
				C427.1,255.1,430.2,256.4,433.3,257.8z"/>
			<path fill="#151515" d="M441.5,275.9c-3.8-6.3,2.7-11.8,1.3-18c1.3,0,2.5-0.3,3.7-0.8c-2.8,12.7,15.9,14.7,13.4,27.2
				c-1,0.4-1.9,0.9-2.9,1.3C449.9,285.6,446.7,279.1,441.5,275.9z"/>
			<path fill="#555555" d="M557.4,217.6c-4.1-0.1-8.1-0.1-12.2-0.2c-3.2-1.9-7.8-3-5.1-8.5c0,0,0,0,0,0
				C546.8,209.9,555.9,206.1,557.4,217.6z"/>
			<path fill="#2F2F2F" d="M540.1,209c1.7,2.8,3.4,5.7,5.1,8.5c-7.9-1.9-19.5,1.5-18.5-13C531.2,205.9,535.7,207.4,540.1,209z"/>
			<path fill="#353535" d="M562.3,235.4l-1.6,0.5c0,0-1.7,0-1.7,0c-3.6-0.8-7.2-1.9-5.8-6.6c0.5-1.7,3-4.2,4.1-4
				C563.1,226.3,561.6,231.5,562.3,235.4z"/>
			<path fill="#A3A3A3" d="M411.2,267.6c1.2-0.5,2.5-0.7,3.8-0.9c3.7,4.2,6.8,8.8,9.5,13.7c1.7,4.5,2,9.1,0.5,13.7
				c-1,2.2-2.5,4.1-4.5,5.5c-6.9,2.9-11.4-0.2-15-5.9c-1.3-3-2.5-6-3.8-9C406.8,280.1,411.7,275.3,411.2,267.6z"/>
			<path fill="#848484" d="M411.2,262.8c-0.2,1.3-0.3,2.6-0.2,3.9c-1.4-1.6-2.8-3.3-4.2-4.9C408.3,262.1,409.8,262.5,411.2,262.8z"
				/>
			<path fill="#9E9E9E" d="M393.7,329.1c-6.8-4.9-15.7-7.7-17.4-17.6c4.6-0.3,9.3-0.3,12.7-4.2c2.9-0.4,5.9-0.7,8.8-1.1
				c4.1,4.7,3.5,9.3,0.1,14C397.4,323.6,398.3,327.6,393.7,329.1z"/>
			<path fill="#999999" d="M405.4,293.8c4.7,1.3,9.3,2.6,14,4c1.9,1.8,2.8,3.9,2.7,6.5c-0.6,2.5-2,4.5-4.2,5.8c-7.7,2-15.1,3.4-16-8
				C403.1,299.3,404.3,296.5,405.4,293.8z"/>
			<path fill="#8B8B8B" d="M401.9,302.1c4.8,5.1,11.1,4.3,17.2,4.5c1.7,1.4,2.2,3.2,1.6,5.3c-5.4,5.6-13.6,3.6-19.6,7.5
				c-1.1,0.2-2.2,0.5-3.2,0.9c0-4.7,0-9.4-0.1-14C399.2,304.8,400.6,303.4,401.9,302.1z"/>
			<path fill="#262626" d="M420.9,302c-0.5-1.4-1-2.8-1.4-4.3c0.6-1.1,0.9-2.2,0.9-3.4c3.3-3.5,3.6-8.5,6.2-12.4
				c0.8-0.5,1.6-1,2.4-1.4c4.2-0.3,8.5-0.5,12.7-0.8c6.6-3.2,9,2.1,12.2,5.8c3.5,5.1,5.6,10.7,6.2,16.8c1.4,1.4,2.8,2.8,4.3,4.2
				c0,4.5,0.1,9.1,0.1,13.6c-2.9,11.9-5.9,23.8-8.8,35.7c-1.6,1.4-3.3,2.8-4.9,4.2c-1.3,0-2.7,0-4,0c-10.6-5.8-2.4-24.1-17.8-26.7
				c0-4.4,0-8.8,0-13.3c0.8-3.2,0.3-6.4-0.3-9.5C428.6,305.3,423.2,305,420.9,302z"/>
			<path fill="#333333" d="M401.1,319.4c2.2-10.8,10.9-8.3,18.1-8.8c3.7-2.2,5.3,0.2,6.5,3.2c-0.2,3.7-3.6,4.3-5.7,6.2
				C413.6,320.9,407.2,323.3,401.1,319.4z"/>
			<path fill="#2B2B2B" d="M419.9,320c1.5-1.5,3-3,4.5-4.5c2.2-3,5-5,8.9-4.4c4.2,1.1,9.3,2.8,7,7.9c-2.1,4.6-7.5,0.8-11.4,1.1
				C425.9,320,422.9,320,419.9,320z"/>
			<path fill="#4A4A4A" d="M437.6,364.5c0.1,2.9,0.3,5.9,0.4,8.8c-3.8,4.2-8.7,4.5-13.9,4.1c1.6-2.9,3.2-5.7,4.7-8.6
				C429.1,362.1,432.8,362.3,437.6,364.5z"/>
			<path fill="#1D1D1D" d="M460,302.4c-5.5-2.9-8.6-7.3-8.9-13.6c2-3.5,6.5-1.8,9-4.4c0,0-0.1,0-0.1,0
				C465.4,290.3,465.6,296.3,460,302.4z"/>
			<path fill="#2A2A2A" d="M460,284.4c-3,1.5-6,2.9-9,4.4c-3.1-3-6.3-6-9.4-9c0.4-1.3,0.4-2.6-0.1-3.8
				C449.6,274.4,454.9,279.2,460,284.4z"/>
			<path fill="#6E6E6E" d="M420,280.5c-1.7-4.6-3.4-9.2-5-13.8c4.4,1.5,8.7,2.9,13.1,4.4c0.3,3.1,0.6,6.2,0.9,9.3
				c0,0,0.3-0.3,0.3-0.3C426.2,282.6,423.2,282.7,420,280.5z"/>
			<path fill="#A5A5A5" d="M420,280.5c3.1-0.1,6.1-0.3,9.2-0.4c-1.4,5.7-0.8,12.7-8.9,14.2C420.2,289.7,420.1,285.1,420,280.5z"/>
			<path fill="#3D3D3D" d="M433.4,311.1c-3,1.5-6,2.9-8.9,4.4c-1.8-1.6-3.5-3.3-5.3-4.9c0.3-1.4,0.3-2.7,0-4.1
				c0.6-1.5,1.2-3,1.7-4.5C428.8,299.9,434.4,301,433.4,311.1z"/>
		</g>
	</g>
	<rect x="294.5" y="115.4" fill="none" stroke="#000000" stroke-width="15" stroke-miterlimit="10" width="378.9" height="338"/>
</g>
</svg>
